G04 #@! TF.GenerationSoftware,KiCad,Pcbnew,5.1.2-f72e74a~84~ubuntu18.04.1*
G04 #@! TF.CreationDate,2019-12-29T11:51:02-05:00*
G04 #@! TF.ProjectId,knuth-gateway,6b6e7574-682d-4676-9174-657761792e6b,rev?*
G04 #@! TF.SameCoordinates,PX18392c0PY8b48bd0*
G04 #@! TF.FileFunction,Copper,L1,Top*
G04 #@! TF.FilePolarity,Positive*
%FSLAX46Y46*%
G04 Gerber Fmt 4.6, Leading zero omitted, Abs format (unit mm)*
G04 Created by KiCad (PCBNEW 5.1.2-f72e74a~84~ubuntu18.04.1) date 2019-12-29 11:51:02*
%MOMM*%
%LPD*%
G04 APERTURE LIST*
%ADD10R,1.700000X1.700000*%
%ADD11O,1.700000X1.700000*%
%ADD12C,2.000000*%
%ADD13C,1.905000*%
G04 APERTURE END LIST*
D10*
X78740000Y86360000D03*
D11*
X78740000Y83820000D03*
X78740000Y81280000D03*
X78740000Y78740000D03*
X78740000Y76200000D03*
X78740000Y73660000D03*
X78740000Y71120000D03*
X78740000Y68580000D03*
X78740000Y66040000D03*
X78740000Y63500000D03*
X78740000Y60960000D03*
X78740000Y58420000D03*
D10*
X26670000Y19050000D03*
D11*
X26670000Y21590000D03*
X26670000Y24130000D03*
X26670000Y26670000D03*
X26670000Y29210000D03*
X26670000Y31750000D03*
X26670000Y34290000D03*
X26670000Y36830000D03*
X26670000Y39370000D03*
X26670000Y41910000D03*
X26670000Y44450000D03*
X26670000Y46990000D03*
X26670000Y49530000D03*
X26670000Y52070000D03*
X26670000Y54610000D03*
X26670000Y57150000D03*
X26670000Y59690000D03*
X26670000Y62230000D03*
X26670000Y64770000D03*
X26670000Y67310000D03*
X26670000Y69850000D03*
X26670000Y72390000D03*
X26670000Y74930000D03*
X26670000Y77470000D03*
X26670000Y80010000D03*
X26670000Y82550000D03*
X26670000Y85090000D03*
X26670000Y87630000D03*
X26670000Y90170000D03*
X26670000Y92710000D03*
X26670000Y95250000D03*
X26670000Y97790000D03*
X39370000Y99060000D03*
D10*
X39370000Y101600000D03*
D11*
X48260000Y104140000D03*
X48260000Y101600000D03*
D10*
X48260000Y99060000D03*
D11*
X20320000Y97790000D03*
X20320000Y95250000D03*
X20320000Y92710000D03*
X20320000Y90170000D03*
X20320000Y87630000D03*
X20320000Y85090000D03*
X20320000Y82550000D03*
X20320000Y80010000D03*
X20320000Y77470000D03*
X20320000Y74930000D03*
X20320000Y72390000D03*
X20320000Y69850000D03*
X20320000Y67310000D03*
X20320000Y64770000D03*
X20320000Y62230000D03*
X20320000Y59690000D03*
X20320000Y57150000D03*
X20320000Y54610000D03*
X20320000Y52070000D03*
X20320000Y49530000D03*
X20320000Y46990000D03*
X20320000Y44450000D03*
X20320000Y41910000D03*
X20320000Y39370000D03*
X20320000Y36830000D03*
X20320000Y34290000D03*
X20320000Y31750000D03*
X20320000Y29210000D03*
X20320000Y26670000D03*
X20320000Y24130000D03*
X20320000Y21590000D03*
D10*
X20320000Y19050000D03*
X58420000Y96520000D03*
D11*
X58420000Y93980000D03*
X58420000Y91440000D03*
X58420000Y88900000D03*
X58420000Y86360000D03*
X58420000Y83820000D03*
X58420000Y81280000D03*
X58420000Y78740000D03*
X58420000Y76200000D03*
X58420000Y73660000D03*
X58420000Y71120000D03*
X58420000Y68580000D03*
X58420000Y66040000D03*
X58420000Y63500000D03*
X58420000Y60960000D03*
X58420000Y58420000D03*
X20320000Y105410000D03*
X22860000Y105410000D03*
X25400000Y105410000D03*
D10*
X27940000Y105410000D03*
D12*
X68580000Y78740000D03*
X68580000Y69850000D03*
X13970000Y38100000D03*
X12700000Y48260000D03*
X16510000Y78740000D03*
X8890000Y77470000D03*
X15240000Y50800000D03*
X15240000Y58420000D03*
X30480000Y78740000D03*
X43180000Y96520000D03*
D13*
X68580000Y78740000D02*
X68580000Y69850000D01*
X13970000Y46990000D02*
X12700000Y48260000D01*
X13970000Y38100000D02*
X13970000Y46990000D01*
X16510000Y78740000D02*
X15240000Y77470000D01*
X15240000Y77470000D02*
X8890000Y77470000D01*
X15240000Y50800000D02*
X15240000Y58420000D01*
X43180000Y87630000D02*
X43180000Y96520000D01*
X30480000Y78740000D02*
X34290000Y78740000D01*
X34290000Y78740000D02*
X43180000Y87630000D01*
M02*
