G04 #@! TF.GenerationSoftware,KiCad,Pcbnew,5.1.2-f72e74a~84~ubuntu18.04.1*
G04 #@! TF.CreationDate,2019-12-29T11:51:02-05:00*
G04 #@! TF.ProjectId,knuth-gateway,6b6e7574-682d-4676-9174-657761792e6b,rev?*
G04 #@! TF.SameCoordinates,PX18392c0PY8b48bd0*
G04 #@! TF.FileFunction,Soldermask,Bot*
G04 #@! TF.FilePolarity,Negative*
%FSLAX46Y46*%
G04 Gerber Fmt 4.6, Leading zero omitted, Abs format (unit mm)*
G04 Created by KiCad (PCBNEW 5.1.2-f72e74a~84~ubuntu18.04.1) date 2019-12-29 11:51:02*
%MOMM*%
%LPD*%
G04 APERTURE LIST*
%ADD10C,0.100000*%
G04 APERTURE END LIST*
D10*
G36*
X86729487Y6821004D02*
G01*
X86966253Y6722932D01*
X86966255Y6722931D01*
X87179339Y6580553D01*
X87360553Y6399339D01*
X87502932Y6186253D01*
X87601004Y5949487D01*
X87651000Y5698139D01*
X87651000Y5441861D01*
X87601004Y5190513D01*
X87502932Y4953747D01*
X87502931Y4953745D01*
X87360553Y4740661D01*
X87179339Y4559447D01*
X86966255Y4417069D01*
X86966254Y4417068D01*
X86966253Y4417068D01*
X86729487Y4318996D01*
X86478139Y4269000D01*
X86221861Y4269000D01*
X85970513Y4318996D01*
X85733747Y4417068D01*
X85733746Y4417068D01*
X85733745Y4417069D01*
X85520661Y4559447D01*
X85339447Y4740661D01*
X85197069Y4953745D01*
X85197068Y4953747D01*
X85098996Y5190513D01*
X85049000Y5441861D01*
X85049000Y5698139D01*
X85098996Y5949487D01*
X85197068Y6186253D01*
X85339447Y6399339D01*
X85520661Y6580553D01*
X85733745Y6722931D01*
X85733747Y6722932D01*
X85970513Y6821004D01*
X86221861Y6871000D01*
X86478139Y6871000D01*
X86729487Y6821004D01*
X86729487Y6821004D01*
G37*
G36*
X6729487Y6821004D02*
G01*
X6966253Y6722932D01*
X6966255Y6722931D01*
X7179339Y6580553D01*
X7360553Y6399339D01*
X7502932Y6186253D01*
X7601004Y5949487D01*
X7651000Y5698139D01*
X7651000Y5441861D01*
X7601004Y5190513D01*
X7502932Y4953747D01*
X7502931Y4953745D01*
X7360553Y4740661D01*
X7179339Y4559447D01*
X6966255Y4417069D01*
X6966254Y4417068D01*
X6966253Y4417068D01*
X6729487Y4318996D01*
X6478139Y4269000D01*
X6221861Y4269000D01*
X5970513Y4318996D01*
X5733747Y4417068D01*
X5733746Y4417068D01*
X5733745Y4417069D01*
X5520661Y4559447D01*
X5339447Y4740661D01*
X5197069Y4953745D01*
X5197068Y4953747D01*
X5098996Y5190513D01*
X5049000Y5441861D01*
X5049000Y5698139D01*
X5098996Y5949487D01*
X5197068Y6186253D01*
X5339447Y6399339D01*
X5520661Y6580553D01*
X5733745Y6722931D01*
X5733747Y6722932D01*
X5970513Y6821004D01*
X6221861Y6871000D01*
X6478139Y6871000D01*
X6729487Y6821004D01*
X6729487Y6821004D01*
G37*
G36*
X27571000Y18149000D02*
G01*
X25769000Y18149000D01*
X25769000Y19951000D01*
X27571000Y19951000D01*
X27571000Y18149000D01*
X27571000Y18149000D01*
G37*
G36*
X21221000Y18149000D02*
G01*
X19419000Y18149000D01*
X19419000Y19951000D01*
X21221000Y19951000D01*
X21221000Y18149000D01*
X21221000Y18149000D01*
G37*
G36*
X20430442Y22484482D02*
G01*
X20496627Y22477963D01*
X20666466Y22426443D01*
X20822991Y22342778D01*
X20858729Y22313448D01*
X20960186Y22230186D01*
X21043448Y22128729D01*
X21072778Y22092991D01*
X21156443Y21936466D01*
X21207963Y21766627D01*
X21225359Y21590000D01*
X21207963Y21413373D01*
X21156443Y21243534D01*
X21072778Y21087009D01*
X21043448Y21051271D01*
X20960186Y20949814D01*
X20858729Y20866552D01*
X20822991Y20837222D01*
X20666466Y20753557D01*
X20496627Y20702037D01*
X20430442Y20695518D01*
X20364260Y20689000D01*
X20275740Y20689000D01*
X20209558Y20695518D01*
X20143373Y20702037D01*
X19973534Y20753557D01*
X19817009Y20837222D01*
X19781271Y20866552D01*
X19679814Y20949814D01*
X19596552Y21051271D01*
X19567222Y21087009D01*
X19483557Y21243534D01*
X19432037Y21413373D01*
X19414641Y21590000D01*
X19432037Y21766627D01*
X19483557Y21936466D01*
X19567222Y22092991D01*
X19596552Y22128729D01*
X19679814Y22230186D01*
X19781271Y22313448D01*
X19817009Y22342778D01*
X19973534Y22426443D01*
X20143373Y22477963D01*
X20209558Y22484482D01*
X20275740Y22491000D01*
X20364260Y22491000D01*
X20430442Y22484482D01*
X20430442Y22484482D01*
G37*
G36*
X26780442Y22484482D02*
G01*
X26846627Y22477963D01*
X27016466Y22426443D01*
X27172991Y22342778D01*
X27208729Y22313448D01*
X27310186Y22230186D01*
X27393448Y22128729D01*
X27422778Y22092991D01*
X27506443Y21936466D01*
X27557963Y21766627D01*
X27575359Y21590000D01*
X27557963Y21413373D01*
X27506443Y21243534D01*
X27422778Y21087009D01*
X27393448Y21051271D01*
X27310186Y20949814D01*
X27208729Y20866552D01*
X27172991Y20837222D01*
X27016466Y20753557D01*
X26846627Y20702037D01*
X26780442Y20695518D01*
X26714260Y20689000D01*
X26625740Y20689000D01*
X26559558Y20695518D01*
X26493373Y20702037D01*
X26323534Y20753557D01*
X26167009Y20837222D01*
X26131271Y20866552D01*
X26029814Y20949814D01*
X25946552Y21051271D01*
X25917222Y21087009D01*
X25833557Y21243534D01*
X25782037Y21413373D01*
X25764641Y21590000D01*
X25782037Y21766627D01*
X25833557Y21936466D01*
X25917222Y22092991D01*
X25946552Y22128729D01*
X26029814Y22230186D01*
X26131271Y22313448D01*
X26167009Y22342778D01*
X26323534Y22426443D01*
X26493373Y22477963D01*
X26559558Y22484482D01*
X26625740Y22491000D01*
X26714260Y22491000D01*
X26780442Y22484482D01*
X26780442Y22484482D01*
G37*
G36*
X26780442Y25024482D02*
G01*
X26846627Y25017963D01*
X27016466Y24966443D01*
X27172991Y24882778D01*
X27208729Y24853448D01*
X27310186Y24770186D01*
X27393448Y24668729D01*
X27422778Y24632991D01*
X27506443Y24476466D01*
X27557963Y24306627D01*
X27575359Y24130000D01*
X27557963Y23953373D01*
X27506443Y23783534D01*
X27422778Y23627009D01*
X27393448Y23591271D01*
X27310186Y23489814D01*
X27208729Y23406552D01*
X27172991Y23377222D01*
X27016466Y23293557D01*
X26846627Y23242037D01*
X26780443Y23235519D01*
X26714260Y23229000D01*
X26625740Y23229000D01*
X26559557Y23235519D01*
X26493373Y23242037D01*
X26323534Y23293557D01*
X26167009Y23377222D01*
X26131271Y23406552D01*
X26029814Y23489814D01*
X25946552Y23591271D01*
X25917222Y23627009D01*
X25833557Y23783534D01*
X25782037Y23953373D01*
X25764641Y24130000D01*
X25782037Y24306627D01*
X25833557Y24476466D01*
X25917222Y24632991D01*
X25946552Y24668729D01*
X26029814Y24770186D01*
X26131271Y24853448D01*
X26167009Y24882778D01*
X26323534Y24966443D01*
X26493373Y25017963D01*
X26559558Y25024482D01*
X26625740Y25031000D01*
X26714260Y25031000D01*
X26780442Y25024482D01*
X26780442Y25024482D01*
G37*
G36*
X20430442Y25024482D02*
G01*
X20496627Y25017963D01*
X20666466Y24966443D01*
X20822991Y24882778D01*
X20858729Y24853448D01*
X20960186Y24770186D01*
X21043448Y24668729D01*
X21072778Y24632991D01*
X21156443Y24476466D01*
X21207963Y24306627D01*
X21225359Y24130000D01*
X21207963Y23953373D01*
X21156443Y23783534D01*
X21072778Y23627009D01*
X21043448Y23591271D01*
X20960186Y23489814D01*
X20858729Y23406552D01*
X20822991Y23377222D01*
X20666466Y23293557D01*
X20496627Y23242037D01*
X20430443Y23235519D01*
X20364260Y23229000D01*
X20275740Y23229000D01*
X20209557Y23235519D01*
X20143373Y23242037D01*
X19973534Y23293557D01*
X19817009Y23377222D01*
X19781271Y23406552D01*
X19679814Y23489814D01*
X19596552Y23591271D01*
X19567222Y23627009D01*
X19483557Y23783534D01*
X19432037Y23953373D01*
X19414641Y24130000D01*
X19432037Y24306627D01*
X19483557Y24476466D01*
X19567222Y24632991D01*
X19596552Y24668729D01*
X19679814Y24770186D01*
X19781271Y24853448D01*
X19817009Y24882778D01*
X19973534Y24966443D01*
X20143373Y25017963D01*
X20209558Y25024482D01*
X20275740Y25031000D01*
X20364260Y25031000D01*
X20430442Y25024482D01*
X20430442Y25024482D01*
G37*
G36*
X26780442Y27564482D02*
G01*
X26846627Y27557963D01*
X27016466Y27506443D01*
X27172991Y27422778D01*
X27208729Y27393448D01*
X27310186Y27310186D01*
X27393448Y27208729D01*
X27422778Y27172991D01*
X27506443Y27016466D01*
X27557963Y26846627D01*
X27575359Y26670000D01*
X27557963Y26493373D01*
X27506443Y26323534D01*
X27422778Y26167009D01*
X27393448Y26131271D01*
X27310186Y26029814D01*
X27208729Y25946552D01*
X27172991Y25917222D01*
X27016466Y25833557D01*
X26846627Y25782037D01*
X26780442Y25775518D01*
X26714260Y25769000D01*
X26625740Y25769000D01*
X26559558Y25775518D01*
X26493373Y25782037D01*
X26323534Y25833557D01*
X26167009Y25917222D01*
X26131271Y25946552D01*
X26029814Y26029814D01*
X25946552Y26131271D01*
X25917222Y26167009D01*
X25833557Y26323534D01*
X25782037Y26493373D01*
X25764641Y26670000D01*
X25782037Y26846627D01*
X25833557Y27016466D01*
X25917222Y27172991D01*
X25946552Y27208729D01*
X26029814Y27310186D01*
X26131271Y27393448D01*
X26167009Y27422778D01*
X26323534Y27506443D01*
X26493373Y27557963D01*
X26559558Y27564482D01*
X26625740Y27571000D01*
X26714260Y27571000D01*
X26780442Y27564482D01*
X26780442Y27564482D01*
G37*
G36*
X20430442Y27564482D02*
G01*
X20496627Y27557963D01*
X20666466Y27506443D01*
X20822991Y27422778D01*
X20858729Y27393448D01*
X20960186Y27310186D01*
X21043448Y27208729D01*
X21072778Y27172991D01*
X21156443Y27016466D01*
X21207963Y26846627D01*
X21225359Y26670000D01*
X21207963Y26493373D01*
X21156443Y26323534D01*
X21072778Y26167009D01*
X21043448Y26131271D01*
X20960186Y26029814D01*
X20858729Y25946552D01*
X20822991Y25917222D01*
X20666466Y25833557D01*
X20496627Y25782037D01*
X20430442Y25775518D01*
X20364260Y25769000D01*
X20275740Y25769000D01*
X20209558Y25775518D01*
X20143373Y25782037D01*
X19973534Y25833557D01*
X19817009Y25917222D01*
X19781271Y25946552D01*
X19679814Y26029814D01*
X19596552Y26131271D01*
X19567222Y26167009D01*
X19483557Y26323534D01*
X19432037Y26493373D01*
X19414641Y26670000D01*
X19432037Y26846627D01*
X19483557Y27016466D01*
X19567222Y27172991D01*
X19596552Y27208729D01*
X19679814Y27310186D01*
X19781271Y27393448D01*
X19817009Y27422778D01*
X19973534Y27506443D01*
X20143373Y27557963D01*
X20209558Y27564482D01*
X20275740Y27571000D01*
X20364260Y27571000D01*
X20430442Y27564482D01*
X20430442Y27564482D01*
G37*
G36*
X20430442Y30104482D02*
G01*
X20496627Y30097963D01*
X20666466Y30046443D01*
X20822991Y29962778D01*
X20858729Y29933448D01*
X20960186Y29850186D01*
X21043448Y29748729D01*
X21072778Y29712991D01*
X21156443Y29556466D01*
X21207963Y29386627D01*
X21225359Y29210000D01*
X21207963Y29033373D01*
X21156443Y28863534D01*
X21072778Y28707009D01*
X21043448Y28671271D01*
X20960186Y28569814D01*
X20858729Y28486552D01*
X20822991Y28457222D01*
X20666466Y28373557D01*
X20496627Y28322037D01*
X20430442Y28315518D01*
X20364260Y28309000D01*
X20275740Y28309000D01*
X20209558Y28315518D01*
X20143373Y28322037D01*
X19973534Y28373557D01*
X19817009Y28457222D01*
X19781271Y28486552D01*
X19679814Y28569814D01*
X19596552Y28671271D01*
X19567222Y28707009D01*
X19483557Y28863534D01*
X19432037Y29033373D01*
X19414641Y29210000D01*
X19432037Y29386627D01*
X19483557Y29556466D01*
X19567222Y29712991D01*
X19596552Y29748729D01*
X19679814Y29850186D01*
X19781271Y29933448D01*
X19817009Y29962778D01*
X19973534Y30046443D01*
X20143373Y30097963D01*
X20209558Y30104482D01*
X20275740Y30111000D01*
X20364260Y30111000D01*
X20430442Y30104482D01*
X20430442Y30104482D01*
G37*
G36*
X26780442Y30104482D02*
G01*
X26846627Y30097963D01*
X27016466Y30046443D01*
X27172991Y29962778D01*
X27208729Y29933448D01*
X27310186Y29850186D01*
X27393448Y29748729D01*
X27422778Y29712991D01*
X27506443Y29556466D01*
X27557963Y29386627D01*
X27575359Y29210000D01*
X27557963Y29033373D01*
X27506443Y28863534D01*
X27422778Y28707009D01*
X27393448Y28671271D01*
X27310186Y28569814D01*
X27208729Y28486552D01*
X27172991Y28457222D01*
X27016466Y28373557D01*
X26846627Y28322037D01*
X26780442Y28315518D01*
X26714260Y28309000D01*
X26625740Y28309000D01*
X26559558Y28315518D01*
X26493373Y28322037D01*
X26323534Y28373557D01*
X26167009Y28457222D01*
X26131271Y28486552D01*
X26029814Y28569814D01*
X25946552Y28671271D01*
X25917222Y28707009D01*
X25833557Y28863534D01*
X25782037Y29033373D01*
X25764641Y29210000D01*
X25782037Y29386627D01*
X25833557Y29556466D01*
X25917222Y29712991D01*
X25946552Y29748729D01*
X26029814Y29850186D01*
X26131271Y29933448D01*
X26167009Y29962778D01*
X26323534Y30046443D01*
X26493373Y30097963D01*
X26559558Y30104482D01*
X26625740Y30111000D01*
X26714260Y30111000D01*
X26780442Y30104482D01*
X26780442Y30104482D01*
G37*
G36*
X26780443Y32644481D02*
G01*
X26846627Y32637963D01*
X27016466Y32586443D01*
X27172991Y32502778D01*
X27208729Y32473448D01*
X27310186Y32390186D01*
X27393448Y32288729D01*
X27422778Y32252991D01*
X27506443Y32096466D01*
X27557963Y31926627D01*
X27575359Y31750000D01*
X27557963Y31573373D01*
X27506443Y31403534D01*
X27422778Y31247009D01*
X27393448Y31211271D01*
X27310186Y31109814D01*
X27208729Y31026552D01*
X27172991Y30997222D01*
X27016466Y30913557D01*
X26846627Y30862037D01*
X26780442Y30855518D01*
X26714260Y30849000D01*
X26625740Y30849000D01*
X26559558Y30855518D01*
X26493373Y30862037D01*
X26323534Y30913557D01*
X26167009Y30997222D01*
X26131271Y31026552D01*
X26029814Y31109814D01*
X25946552Y31211271D01*
X25917222Y31247009D01*
X25833557Y31403534D01*
X25782037Y31573373D01*
X25764641Y31750000D01*
X25782037Y31926627D01*
X25833557Y32096466D01*
X25917222Y32252991D01*
X25946552Y32288729D01*
X26029814Y32390186D01*
X26131271Y32473448D01*
X26167009Y32502778D01*
X26323534Y32586443D01*
X26493373Y32637963D01*
X26559557Y32644481D01*
X26625740Y32651000D01*
X26714260Y32651000D01*
X26780443Y32644481D01*
X26780443Y32644481D01*
G37*
G36*
X20430443Y32644481D02*
G01*
X20496627Y32637963D01*
X20666466Y32586443D01*
X20822991Y32502778D01*
X20858729Y32473448D01*
X20960186Y32390186D01*
X21043448Y32288729D01*
X21072778Y32252991D01*
X21156443Y32096466D01*
X21207963Y31926627D01*
X21225359Y31750000D01*
X21207963Y31573373D01*
X21156443Y31403534D01*
X21072778Y31247009D01*
X21043448Y31211271D01*
X20960186Y31109814D01*
X20858729Y31026552D01*
X20822991Y30997222D01*
X20666466Y30913557D01*
X20496627Y30862037D01*
X20430442Y30855518D01*
X20364260Y30849000D01*
X20275740Y30849000D01*
X20209558Y30855518D01*
X20143373Y30862037D01*
X19973534Y30913557D01*
X19817009Y30997222D01*
X19781271Y31026552D01*
X19679814Y31109814D01*
X19596552Y31211271D01*
X19567222Y31247009D01*
X19483557Y31403534D01*
X19432037Y31573373D01*
X19414641Y31750000D01*
X19432037Y31926627D01*
X19483557Y32096466D01*
X19567222Y32252991D01*
X19596552Y32288729D01*
X19679814Y32390186D01*
X19781271Y32473448D01*
X19817009Y32502778D01*
X19973534Y32586443D01*
X20143373Y32637963D01*
X20209557Y32644481D01*
X20275740Y32651000D01*
X20364260Y32651000D01*
X20430443Y32644481D01*
X20430443Y32644481D01*
G37*
G36*
X20430442Y35184482D02*
G01*
X20496627Y35177963D01*
X20666466Y35126443D01*
X20822991Y35042778D01*
X20858729Y35013448D01*
X20960186Y34930186D01*
X21043448Y34828729D01*
X21072778Y34792991D01*
X21156443Y34636466D01*
X21207963Y34466627D01*
X21225359Y34290000D01*
X21207963Y34113373D01*
X21156443Y33943534D01*
X21072778Y33787009D01*
X21043448Y33751271D01*
X20960186Y33649814D01*
X20858729Y33566552D01*
X20822991Y33537222D01*
X20666466Y33453557D01*
X20496627Y33402037D01*
X20430442Y33395518D01*
X20364260Y33389000D01*
X20275740Y33389000D01*
X20209558Y33395518D01*
X20143373Y33402037D01*
X19973534Y33453557D01*
X19817009Y33537222D01*
X19781271Y33566552D01*
X19679814Y33649814D01*
X19596552Y33751271D01*
X19567222Y33787009D01*
X19483557Y33943534D01*
X19432037Y34113373D01*
X19414641Y34290000D01*
X19432037Y34466627D01*
X19483557Y34636466D01*
X19567222Y34792991D01*
X19596552Y34828729D01*
X19679814Y34930186D01*
X19781271Y35013448D01*
X19817009Y35042778D01*
X19973534Y35126443D01*
X20143373Y35177963D01*
X20209558Y35184482D01*
X20275740Y35191000D01*
X20364260Y35191000D01*
X20430442Y35184482D01*
X20430442Y35184482D01*
G37*
G36*
X26780442Y35184482D02*
G01*
X26846627Y35177963D01*
X27016466Y35126443D01*
X27172991Y35042778D01*
X27208729Y35013448D01*
X27310186Y34930186D01*
X27393448Y34828729D01*
X27422778Y34792991D01*
X27506443Y34636466D01*
X27557963Y34466627D01*
X27575359Y34290000D01*
X27557963Y34113373D01*
X27506443Y33943534D01*
X27422778Y33787009D01*
X27393448Y33751271D01*
X27310186Y33649814D01*
X27208729Y33566552D01*
X27172991Y33537222D01*
X27016466Y33453557D01*
X26846627Y33402037D01*
X26780442Y33395518D01*
X26714260Y33389000D01*
X26625740Y33389000D01*
X26559558Y33395518D01*
X26493373Y33402037D01*
X26323534Y33453557D01*
X26167009Y33537222D01*
X26131271Y33566552D01*
X26029814Y33649814D01*
X25946552Y33751271D01*
X25917222Y33787009D01*
X25833557Y33943534D01*
X25782037Y34113373D01*
X25764641Y34290000D01*
X25782037Y34466627D01*
X25833557Y34636466D01*
X25917222Y34792991D01*
X25946552Y34828729D01*
X26029814Y34930186D01*
X26131271Y35013448D01*
X26167009Y35042778D01*
X26323534Y35126443D01*
X26493373Y35177963D01*
X26559558Y35184482D01*
X26625740Y35191000D01*
X26714260Y35191000D01*
X26780442Y35184482D01*
X26780442Y35184482D01*
G37*
G36*
X26780443Y37724481D02*
G01*
X26846627Y37717963D01*
X27016466Y37666443D01*
X27172991Y37582778D01*
X27208729Y37553448D01*
X27310186Y37470186D01*
X27393448Y37368729D01*
X27422778Y37332991D01*
X27506443Y37176466D01*
X27557963Y37006627D01*
X27575359Y36830000D01*
X27557963Y36653373D01*
X27506443Y36483534D01*
X27422778Y36327009D01*
X27393448Y36291271D01*
X27310186Y36189814D01*
X27208729Y36106552D01*
X27172991Y36077222D01*
X27016466Y35993557D01*
X26846627Y35942037D01*
X26780443Y35935519D01*
X26714260Y35929000D01*
X26625740Y35929000D01*
X26559557Y35935519D01*
X26493373Y35942037D01*
X26323534Y35993557D01*
X26167009Y36077222D01*
X26131271Y36106552D01*
X26029814Y36189814D01*
X25946552Y36291271D01*
X25917222Y36327009D01*
X25833557Y36483534D01*
X25782037Y36653373D01*
X25764641Y36830000D01*
X25782037Y37006627D01*
X25833557Y37176466D01*
X25917222Y37332991D01*
X25946552Y37368729D01*
X26029814Y37470186D01*
X26131271Y37553448D01*
X26167009Y37582778D01*
X26323534Y37666443D01*
X26493373Y37717963D01*
X26559557Y37724481D01*
X26625740Y37731000D01*
X26714260Y37731000D01*
X26780443Y37724481D01*
X26780443Y37724481D01*
G37*
G36*
X20430443Y37724481D02*
G01*
X20496627Y37717963D01*
X20666466Y37666443D01*
X20822991Y37582778D01*
X20858729Y37553448D01*
X20960186Y37470186D01*
X21043448Y37368729D01*
X21072778Y37332991D01*
X21156443Y37176466D01*
X21207963Y37006627D01*
X21225359Y36830000D01*
X21207963Y36653373D01*
X21156443Y36483534D01*
X21072778Y36327009D01*
X21043448Y36291271D01*
X20960186Y36189814D01*
X20858729Y36106552D01*
X20822991Y36077222D01*
X20666466Y35993557D01*
X20496627Y35942037D01*
X20430443Y35935519D01*
X20364260Y35929000D01*
X20275740Y35929000D01*
X20209557Y35935519D01*
X20143373Y35942037D01*
X19973534Y35993557D01*
X19817009Y36077222D01*
X19781271Y36106552D01*
X19679814Y36189814D01*
X19596552Y36291271D01*
X19567222Y36327009D01*
X19483557Y36483534D01*
X19432037Y36653373D01*
X19414641Y36830000D01*
X19432037Y37006627D01*
X19483557Y37176466D01*
X19567222Y37332991D01*
X19596552Y37368729D01*
X19679814Y37470186D01*
X19781271Y37553448D01*
X19817009Y37582778D01*
X19973534Y37666443D01*
X20143373Y37717963D01*
X20209557Y37724481D01*
X20275740Y37731000D01*
X20364260Y37731000D01*
X20430443Y37724481D01*
X20430443Y37724481D01*
G37*
G36*
X26780443Y40264481D02*
G01*
X26846627Y40257963D01*
X27016466Y40206443D01*
X27172991Y40122778D01*
X27208729Y40093448D01*
X27310186Y40010186D01*
X27393448Y39908729D01*
X27422778Y39872991D01*
X27506443Y39716466D01*
X27557963Y39546627D01*
X27575359Y39370000D01*
X27557963Y39193373D01*
X27506443Y39023534D01*
X27422778Y38867009D01*
X27393448Y38831271D01*
X27310186Y38729814D01*
X27208729Y38646552D01*
X27172991Y38617222D01*
X27016466Y38533557D01*
X26846627Y38482037D01*
X26780443Y38475519D01*
X26714260Y38469000D01*
X26625740Y38469000D01*
X26559557Y38475519D01*
X26493373Y38482037D01*
X26323534Y38533557D01*
X26167009Y38617222D01*
X26131271Y38646552D01*
X26029814Y38729814D01*
X25946552Y38831271D01*
X25917222Y38867009D01*
X25833557Y39023534D01*
X25782037Y39193373D01*
X25764641Y39370000D01*
X25782037Y39546627D01*
X25833557Y39716466D01*
X25917222Y39872991D01*
X25946552Y39908729D01*
X26029814Y40010186D01*
X26131271Y40093448D01*
X26167009Y40122778D01*
X26323534Y40206443D01*
X26493373Y40257963D01*
X26559557Y40264481D01*
X26625740Y40271000D01*
X26714260Y40271000D01*
X26780443Y40264481D01*
X26780443Y40264481D01*
G37*
G36*
X20430443Y40264481D02*
G01*
X20496627Y40257963D01*
X20666466Y40206443D01*
X20822991Y40122778D01*
X20858729Y40093448D01*
X20960186Y40010186D01*
X21043448Y39908729D01*
X21072778Y39872991D01*
X21156443Y39716466D01*
X21207963Y39546627D01*
X21225359Y39370000D01*
X21207963Y39193373D01*
X21156443Y39023534D01*
X21072778Y38867009D01*
X21043448Y38831271D01*
X20960186Y38729814D01*
X20858729Y38646552D01*
X20822991Y38617222D01*
X20666466Y38533557D01*
X20496627Y38482037D01*
X20430443Y38475519D01*
X20364260Y38469000D01*
X20275740Y38469000D01*
X20209557Y38475519D01*
X20143373Y38482037D01*
X19973534Y38533557D01*
X19817009Y38617222D01*
X19781271Y38646552D01*
X19679814Y38729814D01*
X19596552Y38831271D01*
X19567222Y38867009D01*
X19483557Y39023534D01*
X19432037Y39193373D01*
X19414641Y39370000D01*
X19432037Y39546627D01*
X19483557Y39716466D01*
X19567222Y39872991D01*
X19596552Y39908729D01*
X19679814Y40010186D01*
X19781271Y40093448D01*
X19817009Y40122778D01*
X19973534Y40206443D01*
X20143373Y40257963D01*
X20209557Y40264481D01*
X20275740Y40271000D01*
X20364260Y40271000D01*
X20430443Y40264481D01*
X20430443Y40264481D01*
G37*
G36*
X20430443Y42804481D02*
G01*
X20496627Y42797963D01*
X20666466Y42746443D01*
X20822991Y42662778D01*
X20858729Y42633448D01*
X20960186Y42550186D01*
X21043448Y42448729D01*
X21072778Y42412991D01*
X21156443Y42256466D01*
X21207963Y42086627D01*
X21225359Y41910000D01*
X21207963Y41733373D01*
X21156443Y41563534D01*
X21072778Y41407009D01*
X21043448Y41371271D01*
X20960186Y41269814D01*
X20858729Y41186552D01*
X20822991Y41157222D01*
X20666466Y41073557D01*
X20496627Y41022037D01*
X20430442Y41015518D01*
X20364260Y41009000D01*
X20275740Y41009000D01*
X20209557Y41015519D01*
X20143373Y41022037D01*
X19973534Y41073557D01*
X19817009Y41157222D01*
X19781271Y41186552D01*
X19679814Y41269814D01*
X19596552Y41371271D01*
X19567222Y41407009D01*
X19483557Y41563534D01*
X19432037Y41733373D01*
X19414641Y41910000D01*
X19432037Y42086627D01*
X19483557Y42256466D01*
X19567222Y42412991D01*
X19596552Y42448729D01*
X19679814Y42550186D01*
X19781271Y42633448D01*
X19817009Y42662778D01*
X19973534Y42746443D01*
X20143373Y42797963D01*
X20209558Y42804482D01*
X20275740Y42811000D01*
X20364260Y42811000D01*
X20430443Y42804481D01*
X20430443Y42804481D01*
G37*
G36*
X26780443Y42804481D02*
G01*
X26846627Y42797963D01*
X27016466Y42746443D01*
X27172991Y42662778D01*
X27208729Y42633448D01*
X27310186Y42550186D01*
X27393448Y42448729D01*
X27422778Y42412991D01*
X27506443Y42256466D01*
X27557963Y42086627D01*
X27575359Y41910000D01*
X27557963Y41733373D01*
X27506443Y41563534D01*
X27422778Y41407009D01*
X27393448Y41371271D01*
X27310186Y41269814D01*
X27208729Y41186552D01*
X27172991Y41157222D01*
X27016466Y41073557D01*
X26846627Y41022037D01*
X26780442Y41015518D01*
X26714260Y41009000D01*
X26625740Y41009000D01*
X26559557Y41015519D01*
X26493373Y41022037D01*
X26323534Y41073557D01*
X26167009Y41157222D01*
X26131271Y41186552D01*
X26029814Y41269814D01*
X25946552Y41371271D01*
X25917222Y41407009D01*
X25833557Y41563534D01*
X25782037Y41733373D01*
X25764641Y41910000D01*
X25782037Y42086627D01*
X25833557Y42256466D01*
X25917222Y42412991D01*
X25946552Y42448729D01*
X26029814Y42550186D01*
X26131271Y42633448D01*
X26167009Y42662778D01*
X26323534Y42746443D01*
X26493373Y42797963D01*
X26559558Y42804482D01*
X26625740Y42811000D01*
X26714260Y42811000D01*
X26780443Y42804481D01*
X26780443Y42804481D01*
G37*
G36*
X26780443Y45344481D02*
G01*
X26846627Y45337963D01*
X27016466Y45286443D01*
X27172991Y45202778D01*
X27208729Y45173448D01*
X27310186Y45090186D01*
X27393448Y44988729D01*
X27422778Y44952991D01*
X27506443Y44796466D01*
X27557963Y44626627D01*
X27575359Y44450000D01*
X27557963Y44273373D01*
X27506443Y44103534D01*
X27422778Y43947009D01*
X27393448Y43911271D01*
X27310186Y43809814D01*
X27208729Y43726552D01*
X27172991Y43697222D01*
X27016466Y43613557D01*
X26846627Y43562037D01*
X26780442Y43555518D01*
X26714260Y43549000D01*
X26625740Y43549000D01*
X26559558Y43555518D01*
X26493373Y43562037D01*
X26323534Y43613557D01*
X26167009Y43697222D01*
X26131271Y43726552D01*
X26029814Y43809814D01*
X25946552Y43911271D01*
X25917222Y43947009D01*
X25833557Y44103534D01*
X25782037Y44273373D01*
X25764641Y44450000D01*
X25782037Y44626627D01*
X25833557Y44796466D01*
X25917222Y44952991D01*
X25946552Y44988729D01*
X26029814Y45090186D01*
X26131271Y45173448D01*
X26167009Y45202778D01*
X26323534Y45286443D01*
X26493373Y45337963D01*
X26559557Y45344481D01*
X26625740Y45351000D01*
X26714260Y45351000D01*
X26780443Y45344481D01*
X26780443Y45344481D01*
G37*
G36*
X20430443Y45344481D02*
G01*
X20496627Y45337963D01*
X20666466Y45286443D01*
X20822991Y45202778D01*
X20858729Y45173448D01*
X20960186Y45090186D01*
X21043448Y44988729D01*
X21072778Y44952991D01*
X21156443Y44796466D01*
X21207963Y44626627D01*
X21225359Y44450000D01*
X21207963Y44273373D01*
X21156443Y44103534D01*
X21072778Y43947009D01*
X21043448Y43911271D01*
X20960186Y43809814D01*
X20858729Y43726552D01*
X20822991Y43697222D01*
X20666466Y43613557D01*
X20496627Y43562037D01*
X20430442Y43555518D01*
X20364260Y43549000D01*
X20275740Y43549000D01*
X20209558Y43555518D01*
X20143373Y43562037D01*
X19973534Y43613557D01*
X19817009Y43697222D01*
X19781271Y43726552D01*
X19679814Y43809814D01*
X19596552Y43911271D01*
X19567222Y43947009D01*
X19483557Y44103534D01*
X19432037Y44273373D01*
X19414641Y44450000D01*
X19432037Y44626627D01*
X19483557Y44796466D01*
X19567222Y44952991D01*
X19596552Y44988729D01*
X19679814Y45090186D01*
X19781271Y45173448D01*
X19817009Y45202778D01*
X19973534Y45286443D01*
X20143373Y45337963D01*
X20209557Y45344481D01*
X20275740Y45351000D01*
X20364260Y45351000D01*
X20430443Y45344481D01*
X20430443Y45344481D01*
G37*
G36*
X26780443Y47884481D02*
G01*
X26846627Y47877963D01*
X27016466Y47826443D01*
X27172991Y47742778D01*
X27208729Y47713448D01*
X27310186Y47630186D01*
X27393448Y47528729D01*
X27422778Y47492991D01*
X27506443Y47336466D01*
X27557963Y47166627D01*
X27575359Y46990000D01*
X27557963Y46813373D01*
X27506443Y46643534D01*
X27422778Y46487009D01*
X27393448Y46451271D01*
X27310186Y46349814D01*
X27208729Y46266552D01*
X27172991Y46237222D01*
X27016466Y46153557D01*
X26846627Y46102037D01*
X26780443Y46095519D01*
X26714260Y46089000D01*
X26625740Y46089000D01*
X26559557Y46095519D01*
X26493373Y46102037D01*
X26323534Y46153557D01*
X26167009Y46237222D01*
X26131271Y46266552D01*
X26029814Y46349814D01*
X25946552Y46451271D01*
X25917222Y46487009D01*
X25833557Y46643534D01*
X25782037Y46813373D01*
X25764641Y46990000D01*
X25782037Y47166627D01*
X25833557Y47336466D01*
X25917222Y47492991D01*
X25946552Y47528729D01*
X26029814Y47630186D01*
X26131271Y47713448D01*
X26167009Y47742778D01*
X26323534Y47826443D01*
X26493373Y47877963D01*
X26559557Y47884481D01*
X26625740Y47891000D01*
X26714260Y47891000D01*
X26780443Y47884481D01*
X26780443Y47884481D01*
G37*
G36*
X20430443Y47884481D02*
G01*
X20496627Y47877963D01*
X20666466Y47826443D01*
X20822991Y47742778D01*
X20858729Y47713448D01*
X20960186Y47630186D01*
X21043448Y47528729D01*
X21072778Y47492991D01*
X21156443Y47336466D01*
X21207963Y47166627D01*
X21225359Y46990000D01*
X21207963Y46813373D01*
X21156443Y46643534D01*
X21072778Y46487009D01*
X21043448Y46451271D01*
X20960186Y46349814D01*
X20858729Y46266552D01*
X20822991Y46237222D01*
X20666466Y46153557D01*
X20496627Y46102037D01*
X20430443Y46095519D01*
X20364260Y46089000D01*
X20275740Y46089000D01*
X20209557Y46095519D01*
X20143373Y46102037D01*
X19973534Y46153557D01*
X19817009Y46237222D01*
X19781271Y46266552D01*
X19679814Y46349814D01*
X19596552Y46451271D01*
X19567222Y46487009D01*
X19483557Y46643534D01*
X19432037Y46813373D01*
X19414641Y46990000D01*
X19432037Y47166627D01*
X19483557Y47336466D01*
X19567222Y47492991D01*
X19596552Y47528729D01*
X19679814Y47630186D01*
X19781271Y47713448D01*
X19817009Y47742778D01*
X19973534Y47826443D01*
X20143373Y47877963D01*
X20209557Y47884481D01*
X20275740Y47891000D01*
X20364260Y47891000D01*
X20430443Y47884481D01*
X20430443Y47884481D01*
G37*
G36*
X26780442Y50424482D02*
G01*
X26846627Y50417963D01*
X27016466Y50366443D01*
X27172991Y50282778D01*
X27208729Y50253448D01*
X27310186Y50170186D01*
X27393448Y50068729D01*
X27422778Y50032991D01*
X27506443Y49876466D01*
X27557963Y49706627D01*
X27575359Y49530000D01*
X27557963Y49353373D01*
X27506443Y49183534D01*
X27422778Y49027009D01*
X27393448Y48991271D01*
X27310186Y48889814D01*
X27208729Y48806552D01*
X27172991Y48777222D01*
X27016466Y48693557D01*
X26846627Y48642037D01*
X26780442Y48635518D01*
X26714260Y48629000D01*
X26625740Y48629000D01*
X26559558Y48635518D01*
X26493373Y48642037D01*
X26323534Y48693557D01*
X26167009Y48777222D01*
X26131271Y48806552D01*
X26029814Y48889814D01*
X25946552Y48991271D01*
X25917222Y49027009D01*
X25833557Y49183534D01*
X25782037Y49353373D01*
X25764641Y49530000D01*
X25782037Y49706627D01*
X25833557Y49876466D01*
X25917222Y50032991D01*
X25946552Y50068729D01*
X26029814Y50170186D01*
X26131271Y50253448D01*
X26167009Y50282778D01*
X26323534Y50366443D01*
X26493373Y50417963D01*
X26559558Y50424482D01*
X26625740Y50431000D01*
X26714260Y50431000D01*
X26780442Y50424482D01*
X26780442Y50424482D01*
G37*
G36*
X20430442Y50424482D02*
G01*
X20496627Y50417963D01*
X20666466Y50366443D01*
X20822991Y50282778D01*
X20858729Y50253448D01*
X20960186Y50170186D01*
X21043448Y50068729D01*
X21072778Y50032991D01*
X21156443Y49876466D01*
X21207963Y49706627D01*
X21225359Y49530000D01*
X21207963Y49353373D01*
X21156443Y49183534D01*
X21072778Y49027009D01*
X21043448Y48991271D01*
X20960186Y48889814D01*
X20858729Y48806552D01*
X20822991Y48777222D01*
X20666466Y48693557D01*
X20496627Y48642037D01*
X20430442Y48635518D01*
X20364260Y48629000D01*
X20275740Y48629000D01*
X20209558Y48635518D01*
X20143373Y48642037D01*
X19973534Y48693557D01*
X19817009Y48777222D01*
X19781271Y48806552D01*
X19679814Y48889814D01*
X19596552Y48991271D01*
X19567222Y49027009D01*
X19483557Y49183534D01*
X19432037Y49353373D01*
X19414641Y49530000D01*
X19432037Y49706627D01*
X19483557Y49876466D01*
X19567222Y50032991D01*
X19596552Y50068729D01*
X19679814Y50170186D01*
X19781271Y50253448D01*
X19817009Y50282778D01*
X19973534Y50366443D01*
X20143373Y50417963D01*
X20209558Y50424482D01*
X20275740Y50431000D01*
X20364260Y50431000D01*
X20430442Y50424482D01*
X20430442Y50424482D01*
G37*
G36*
X26780443Y52964481D02*
G01*
X26846627Y52957963D01*
X27016466Y52906443D01*
X27172991Y52822778D01*
X27208729Y52793448D01*
X27310186Y52710186D01*
X27393448Y52608729D01*
X27422778Y52572991D01*
X27506443Y52416466D01*
X27557963Y52246627D01*
X27575359Y52070000D01*
X27557963Y51893373D01*
X27506443Y51723534D01*
X27422778Y51567009D01*
X27393448Y51531271D01*
X27310186Y51429814D01*
X27208729Y51346552D01*
X27172991Y51317222D01*
X27016466Y51233557D01*
X26846627Y51182037D01*
X26780443Y51175519D01*
X26714260Y51169000D01*
X26625740Y51169000D01*
X26559557Y51175519D01*
X26493373Y51182037D01*
X26323534Y51233557D01*
X26167009Y51317222D01*
X26131271Y51346552D01*
X26029814Y51429814D01*
X25946552Y51531271D01*
X25917222Y51567009D01*
X25833557Y51723534D01*
X25782037Y51893373D01*
X25764641Y52070000D01*
X25782037Y52246627D01*
X25833557Y52416466D01*
X25917222Y52572991D01*
X25946552Y52608729D01*
X26029814Y52710186D01*
X26131271Y52793448D01*
X26167009Y52822778D01*
X26323534Y52906443D01*
X26493373Y52957963D01*
X26559557Y52964481D01*
X26625740Y52971000D01*
X26714260Y52971000D01*
X26780443Y52964481D01*
X26780443Y52964481D01*
G37*
G36*
X20430443Y52964481D02*
G01*
X20496627Y52957963D01*
X20666466Y52906443D01*
X20822991Y52822778D01*
X20858729Y52793448D01*
X20960186Y52710186D01*
X21043448Y52608729D01*
X21072778Y52572991D01*
X21156443Y52416466D01*
X21207963Y52246627D01*
X21225359Y52070000D01*
X21207963Y51893373D01*
X21156443Y51723534D01*
X21072778Y51567009D01*
X21043448Y51531271D01*
X20960186Y51429814D01*
X20858729Y51346552D01*
X20822991Y51317222D01*
X20666466Y51233557D01*
X20496627Y51182037D01*
X20430443Y51175519D01*
X20364260Y51169000D01*
X20275740Y51169000D01*
X20209557Y51175519D01*
X20143373Y51182037D01*
X19973534Y51233557D01*
X19817009Y51317222D01*
X19781271Y51346552D01*
X19679814Y51429814D01*
X19596552Y51531271D01*
X19567222Y51567009D01*
X19483557Y51723534D01*
X19432037Y51893373D01*
X19414641Y52070000D01*
X19432037Y52246627D01*
X19483557Y52416466D01*
X19567222Y52572991D01*
X19596552Y52608729D01*
X19679814Y52710186D01*
X19781271Y52793448D01*
X19817009Y52822778D01*
X19973534Y52906443D01*
X20143373Y52957963D01*
X20209557Y52964481D01*
X20275740Y52971000D01*
X20364260Y52971000D01*
X20430443Y52964481D01*
X20430443Y52964481D01*
G37*
G36*
X26780443Y55504481D02*
G01*
X26846627Y55497963D01*
X27016466Y55446443D01*
X27172991Y55362778D01*
X27208729Y55333448D01*
X27310186Y55250186D01*
X27393448Y55148729D01*
X27422778Y55112991D01*
X27506443Y54956466D01*
X27557963Y54786627D01*
X27575359Y54610000D01*
X27557963Y54433373D01*
X27506443Y54263534D01*
X27422778Y54107009D01*
X27393448Y54071271D01*
X27310186Y53969814D01*
X27208729Y53886552D01*
X27172991Y53857222D01*
X27016466Y53773557D01*
X26846627Y53722037D01*
X26780443Y53715519D01*
X26714260Y53709000D01*
X26625740Y53709000D01*
X26559557Y53715519D01*
X26493373Y53722037D01*
X26323534Y53773557D01*
X26167009Y53857222D01*
X26131271Y53886552D01*
X26029814Y53969814D01*
X25946552Y54071271D01*
X25917222Y54107009D01*
X25833557Y54263534D01*
X25782037Y54433373D01*
X25764641Y54610000D01*
X25782037Y54786627D01*
X25833557Y54956466D01*
X25917222Y55112991D01*
X25946552Y55148729D01*
X26029814Y55250186D01*
X26131271Y55333448D01*
X26167009Y55362778D01*
X26323534Y55446443D01*
X26493373Y55497963D01*
X26559557Y55504481D01*
X26625740Y55511000D01*
X26714260Y55511000D01*
X26780443Y55504481D01*
X26780443Y55504481D01*
G37*
G36*
X20430443Y55504481D02*
G01*
X20496627Y55497963D01*
X20666466Y55446443D01*
X20822991Y55362778D01*
X20858729Y55333448D01*
X20960186Y55250186D01*
X21043448Y55148729D01*
X21072778Y55112991D01*
X21156443Y54956466D01*
X21207963Y54786627D01*
X21225359Y54610000D01*
X21207963Y54433373D01*
X21156443Y54263534D01*
X21072778Y54107009D01*
X21043448Y54071271D01*
X20960186Y53969814D01*
X20858729Y53886552D01*
X20822991Y53857222D01*
X20666466Y53773557D01*
X20496627Y53722037D01*
X20430443Y53715519D01*
X20364260Y53709000D01*
X20275740Y53709000D01*
X20209557Y53715519D01*
X20143373Y53722037D01*
X19973534Y53773557D01*
X19817009Y53857222D01*
X19781271Y53886552D01*
X19679814Y53969814D01*
X19596552Y54071271D01*
X19567222Y54107009D01*
X19483557Y54263534D01*
X19432037Y54433373D01*
X19414641Y54610000D01*
X19432037Y54786627D01*
X19483557Y54956466D01*
X19567222Y55112991D01*
X19596552Y55148729D01*
X19679814Y55250186D01*
X19781271Y55333448D01*
X19817009Y55362778D01*
X19973534Y55446443D01*
X20143373Y55497963D01*
X20209557Y55504481D01*
X20275740Y55511000D01*
X20364260Y55511000D01*
X20430443Y55504481D01*
X20430443Y55504481D01*
G37*
G36*
X26780443Y58044481D02*
G01*
X26846627Y58037963D01*
X27016466Y57986443D01*
X27172991Y57902778D01*
X27208729Y57873448D01*
X27310186Y57790186D01*
X27393448Y57688729D01*
X27422778Y57652991D01*
X27506443Y57496466D01*
X27557963Y57326627D01*
X27575359Y57150000D01*
X27557963Y56973373D01*
X27506443Y56803534D01*
X27422778Y56647009D01*
X27393448Y56611271D01*
X27310186Y56509814D01*
X27208729Y56426552D01*
X27172991Y56397222D01*
X27016466Y56313557D01*
X26846627Y56262037D01*
X26780443Y56255519D01*
X26714260Y56249000D01*
X26625740Y56249000D01*
X26559557Y56255519D01*
X26493373Y56262037D01*
X26323534Y56313557D01*
X26167009Y56397222D01*
X26131271Y56426552D01*
X26029814Y56509814D01*
X25946552Y56611271D01*
X25917222Y56647009D01*
X25833557Y56803534D01*
X25782037Y56973373D01*
X25764641Y57150000D01*
X25782037Y57326627D01*
X25833557Y57496466D01*
X25917222Y57652991D01*
X25946552Y57688729D01*
X26029814Y57790186D01*
X26131271Y57873448D01*
X26167009Y57902778D01*
X26323534Y57986443D01*
X26493373Y58037963D01*
X26559557Y58044481D01*
X26625740Y58051000D01*
X26714260Y58051000D01*
X26780443Y58044481D01*
X26780443Y58044481D01*
G37*
G36*
X20430443Y58044481D02*
G01*
X20496627Y58037963D01*
X20666466Y57986443D01*
X20822991Y57902778D01*
X20858729Y57873448D01*
X20960186Y57790186D01*
X21043448Y57688729D01*
X21072778Y57652991D01*
X21156443Y57496466D01*
X21207963Y57326627D01*
X21225359Y57150000D01*
X21207963Y56973373D01*
X21156443Y56803534D01*
X21072778Y56647009D01*
X21043448Y56611271D01*
X20960186Y56509814D01*
X20858729Y56426552D01*
X20822991Y56397222D01*
X20666466Y56313557D01*
X20496627Y56262037D01*
X20430443Y56255519D01*
X20364260Y56249000D01*
X20275740Y56249000D01*
X20209557Y56255519D01*
X20143373Y56262037D01*
X19973534Y56313557D01*
X19817009Y56397222D01*
X19781271Y56426552D01*
X19679814Y56509814D01*
X19596552Y56611271D01*
X19567222Y56647009D01*
X19483557Y56803534D01*
X19432037Y56973373D01*
X19414641Y57150000D01*
X19432037Y57326627D01*
X19483557Y57496466D01*
X19567222Y57652991D01*
X19596552Y57688729D01*
X19679814Y57790186D01*
X19781271Y57873448D01*
X19817009Y57902778D01*
X19973534Y57986443D01*
X20143373Y58037963D01*
X20209557Y58044481D01*
X20275740Y58051000D01*
X20364260Y58051000D01*
X20430443Y58044481D01*
X20430443Y58044481D01*
G37*
G36*
X58530442Y59314482D02*
G01*
X58596627Y59307963D01*
X58766466Y59256443D01*
X58922991Y59172778D01*
X58958729Y59143448D01*
X59060186Y59060186D01*
X59143448Y58958729D01*
X59172778Y58922991D01*
X59256443Y58766466D01*
X59307963Y58596627D01*
X59325359Y58420000D01*
X59307963Y58243373D01*
X59256443Y58073534D01*
X59172778Y57917009D01*
X59143448Y57881271D01*
X59060186Y57779814D01*
X58958729Y57696552D01*
X58922991Y57667222D01*
X58766466Y57583557D01*
X58596627Y57532037D01*
X58530442Y57525518D01*
X58464260Y57519000D01*
X58375740Y57519000D01*
X58309558Y57525518D01*
X58243373Y57532037D01*
X58073534Y57583557D01*
X57917009Y57667222D01*
X57881271Y57696552D01*
X57779814Y57779814D01*
X57696552Y57881271D01*
X57667222Y57917009D01*
X57583557Y58073534D01*
X57532037Y58243373D01*
X57514641Y58420000D01*
X57532037Y58596627D01*
X57583557Y58766466D01*
X57667222Y58922991D01*
X57696552Y58958729D01*
X57779814Y59060186D01*
X57881271Y59143448D01*
X57917009Y59172778D01*
X58073534Y59256443D01*
X58243373Y59307963D01*
X58309558Y59314482D01*
X58375740Y59321000D01*
X58464260Y59321000D01*
X58530442Y59314482D01*
X58530442Y59314482D01*
G37*
G36*
X78850442Y59314482D02*
G01*
X78916627Y59307963D01*
X79086466Y59256443D01*
X79242991Y59172778D01*
X79278729Y59143448D01*
X79380186Y59060186D01*
X79463448Y58958729D01*
X79492778Y58922991D01*
X79576443Y58766466D01*
X79627963Y58596627D01*
X79645359Y58420000D01*
X79627963Y58243373D01*
X79576443Y58073534D01*
X79492778Y57917009D01*
X79463448Y57881271D01*
X79380186Y57779814D01*
X79278729Y57696552D01*
X79242991Y57667222D01*
X79086466Y57583557D01*
X78916627Y57532037D01*
X78850442Y57525518D01*
X78784260Y57519000D01*
X78695740Y57519000D01*
X78629558Y57525518D01*
X78563373Y57532037D01*
X78393534Y57583557D01*
X78237009Y57667222D01*
X78201271Y57696552D01*
X78099814Y57779814D01*
X78016552Y57881271D01*
X77987222Y57917009D01*
X77903557Y58073534D01*
X77852037Y58243373D01*
X77834641Y58420000D01*
X77852037Y58596627D01*
X77903557Y58766466D01*
X77987222Y58922991D01*
X78016552Y58958729D01*
X78099814Y59060186D01*
X78201271Y59143448D01*
X78237009Y59172778D01*
X78393534Y59256443D01*
X78563373Y59307963D01*
X78629558Y59314482D01*
X78695740Y59321000D01*
X78784260Y59321000D01*
X78850442Y59314482D01*
X78850442Y59314482D01*
G37*
G36*
X26780442Y60584482D02*
G01*
X26846627Y60577963D01*
X27016466Y60526443D01*
X27172991Y60442778D01*
X27208729Y60413448D01*
X27310186Y60330186D01*
X27393448Y60228729D01*
X27422778Y60192991D01*
X27506443Y60036466D01*
X27557963Y59866627D01*
X27575359Y59690000D01*
X27557963Y59513373D01*
X27506443Y59343534D01*
X27422778Y59187009D01*
X27393448Y59151271D01*
X27310186Y59049814D01*
X27208729Y58966552D01*
X27172991Y58937222D01*
X27016466Y58853557D01*
X26846627Y58802037D01*
X26780442Y58795518D01*
X26714260Y58789000D01*
X26625740Y58789000D01*
X26559558Y58795518D01*
X26493373Y58802037D01*
X26323534Y58853557D01*
X26167009Y58937222D01*
X26131271Y58966552D01*
X26029814Y59049814D01*
X25946552Y59151271D01*
X25917222Y59187009D01*
X25833557Y59343534D01*
X25782037Y59513373D01*
X25764641Y59690000D01*
X25782037Y59866627D01*
X25833557Y60036466D01*
X25917222Y60192991D01*
X25946552Y60228729D01*
X26029814Y60330186D01*
X26131271Y60413448D01*
X26167009Y60442778D01*
X26323534Y60526443D01*
X26493373Y60577963D01*
X26559558Y60584482D01*
X26625740Y60591000D01*
X26714260Y60591000D01*
X26780442Y60584482D01*
X26780442Y60584482D01*
G37*
G36*
X20430442Y60584482D02*
G01*
X20496627Y60577963D01*
X20666466Y60526443D01*
X20822991Y60442778D01*
X20858729Y60413448D01*
X20960186Y60330186D01*
X21043448Y60228729D01*
X21072778Y60192991D01*
X21156443Y60036466D01*
X21207963Y59866627D01*
X21225359Y59690000D01*
X21207963Y59513373D01*
X21156443Y59343534D01*
X21072778Y59187009D01*
X21043448Y59151271D01*
X20960186Y59049814D01*
X20858729Y58966552D01*
X20822991Y58937222D01*
X20666466Y58853557D01*
X20496627Y58802037D01*
X20430442Y58795518D01*
X20364260Y58789000D01*
X20275740Y58789000D01*
X20209558Y58795518D01*
X20143373Y58802037D01*
X19973534Y58853557D01*
X19817009Y58937222D01*
X19781271Y58966552D01*
X19679814Y59049814D01*
X19596552Y59151271D01*
X19567222Y59187009D01*
X19483557Y59343534D01*
X19432037Y59513373D01*
X19414641Y59690000D01*
X19432037Y59866627D01*
X19483557Y60036466D01*
X19567222Y60192991D01*
X19596552Y60228729D01*
X19679814Y60330186D01*
X19781271Y60413448D01*
X19817009Y60442778D01*
X19973534Y60526443D01*
X20143373Y60577963D01*
X20209558Y60584482D01*
X20275740Y60591000D01*
X20364260Y60591000D01*
X20430442Y60584482D01*
X20430442Y60584482D01*
G37*
G36*
X78850442Y61854482D02*
G01*
X78916627Y61847963D01*
X79086466Y61796443D01*
X79242991Y61712778D01*
X79278729Y61683448D01*
X79380186Y61600186D01*
X79463448Y61498729D01*
X79492778Y61462991D01*
X79576443Y61306466D01*
X79627963Y61136627D01*
X79645359Y60960000D01*
X79627963Y60783373D01*
X79576443Y60613534D01*
X79492778Y60457009D01*
X79463448Y60421271D01*
X79380186Y60319814D01*
X79278729Y60236552D01*
X79242991Y60207222D01*
X79086466Y60123557D01*
X78916627Y60072037D01*
X78850442Y60065518D01*
X78784260Y60059000D01*
X78695740Y60059000D01*
X78629558Y60065518D01*
X78563373Y60072037D01*
X78393534Y60123557D01*
X78237009Y60207222D01*
X78201271Y60236552D01*
X78099814Y60319814D01*
X78016552Y60421271D01*
X77987222Y60457009D01*
X77903557Y60613534D01*
X77852037Y60783373D01*
X77834641Y60960000D01*
X77852037Y61136627D01*
X77903557Y61306466D01*
X77987222Y61462991D01*
X78016552Y61498729D01*
X78099814Y61600186D01*
X78201271Y61683448D01*
X78237009Y61712778D01*
X78393534Y61796443D01*
X78563373Y61847963D01*
X78629558Y61854482D01*
X78695740Y61861000D01*
X78784260Y61861000D01*
X78850442Y61854482D01*
X78850442Y61854482D01*
G37*
G36*
X58530442Y61854482D02*
G01*
X58596627Y61847963D01*
X58766466Y61796443D01*
X58922991Y61712778D01*
X58958729Y61683448D01*
X59060186Y61600186D01*
X59143448Y61498729D01*
X59172778Y61462991D01*
X59256443Y61306466D01*
X59307963Y61136627D01*
X59325359Y60960000D01*
X59307963Y60783373D01*
X59256443Y60613534D01*
X59172778Y60457009D01*
X59143448Y60421271D01*
X59060186Y60319814D01*
X58958729Y60236552D01*
X58922991Y60207222D01*
X58766466Y60123557D01*
X58596627Y60072037D01*
X58530442Y60065518D01*
X58464260Y60059000D01*
X58375740Y60059000D01*
X58309558Y60065518D01*
X58243373Y60072037D01*
X58073534Y60123557D01*
X57917009Y60207222D01*
X57881271Y60236552D01*
X57779814Y60319814D01*
X57696552Y60421271D01*
X57667222Y60457009D01*
X57583557Y60613534D01*
X57532037Y60783373D01*
X57514641Y60960000D01*
X57532037Y61136627D01*
X57583557Y61306466D01*
X57667222Y61462991D01*
X57696552Y61498729D01*
X57779814Y61600186D01*
X57881271Y61683448D01*
X57917009Y61712778D01*
X58073534Y61796443D01*
X58243373Y61847963D01*
X58309558Y61854482D01*
X58375740Y61861000D01*
X58464260Y61861000D01*
X58530442Y61854482D01*
X58530442Y61854482D01*
G37*
G36*
X26780443Y63124481D02*
G01*
X26846627Y63117963D01*
X27016466Y63066443D01*
X27172991Y62982778D01*
X27208729Y62953448D01*
X27310186Y62870186D01*
X27393448Y62768729D01*
X27422778Y62732991D01*
X27506443Y62576466D01*
X27557963Y62406627D01*
X27575359Y62230000D01*
X27557963Y62053373D01*
X27506443Y61883534D01*
X27422778Y61727009D01*
X27393448Y61691271D01*
X27310186Y61589814D01*
X27208729Y61506552D01*
X27172991Y61477222D01*
X27016466Y61393557D01*
X26846627Y61342037D01*
X26780443Y61335519D01*
X26714260Y61329000D01*
X26625740Y61329000D01*
X26559557Y61335519D01*
X26493373Y61342037D01*
X26323534Y61393557D01*
X26167009Y61477222D01*
X26131271Y61506552D01*
X26029814Y61589814D01*
X25946552Y61691271D01*
X25917222Y61727009D01*
X25833557Y61883534D01*
X25782037Y62053373D01*
X25764641Y62230000D01*
X25782037Y62406627D01*
X25833557Y62576466D01*
X25917222Y62732991D01*
X25946552Y62768729D01*
X26029814Y62870186D01*
X26131271Y62953448D01*
X26167009Y62982778D01*
X26323534Y63066443D01*
X26493373Y63117963D01*
X26559557Y63124481D01*
X26625740Y63131000D01*
X26714260Y63131000D01*
X26780443Y63124481D01*
X26780443Y63124481D01*
G37*
G36*
X20430443Y63124481D02*
G01*
X20496627Y63117963D01*
X20666466Y63066443D01*
X20822991Y62982778D01*
X20858729Y62953448D01*
X20960186Y62870186D01*
X21043448Y62768729D01*
X21072778Y62732991D01*
X21156443Y62576466D01*
X21207963Y62406627D01*
X21225359Y62230000D01*
X21207963Y62053373D01*
X21156443Y61883534D01*
X21072778Y61727009D01*
X21043448Y61691271D01*
X20960186Y61589814D01*
X20858729Y61506552D01*
X20822991Y61477222D01*
X20666466Y61393557D01*
X20496627Y61342037D01*
X20430443Y61335519D01*
X20364260Y61329000D01*
X20275740Y61329000D01*
X20209557Y61335519D01*
X20143373Y61342037D01*
X19973534Y61393557D01*
X19817009Y61477222D01*
X19781271Y61506552D01*
X19679814Y61589814D01*
X19596552Y61691271D01*
X19567222Y61727009D01*
X19483557Y61883534D01*
X19432037Y62053373D01*
X19414641Y62230000D01*
X19432037Y62406627D01*
X19483557Y62576466D01*
X19567222Y62732991D01*
X19596552Y62768729D01*
X19679814Y62870186D01*
X19781271Y62953448D01*
X19817009Y62982778D01*
X19973534Y63066443D01*
X20143373Y63117963D01*
X20209557Y63124481D01*
X20275740Y63131000D01*
X20364260Y63131000D01*
X20430443Y63124481D01*
X20430443Y63124481D01*
G37*
G36*
X58530443Y64394481D02*
G01*
X58596627Y64387963D01*
X58766466Y64336443D01*
X58922991Y64252778D01*
X58958729Y64223448D01*
X59060186Y64140186D01*
X59143448Y64038729D01*
X59172778Y64002991D01*
X59256443Y63846466D01*
X59307963Y63676627D01*
X59325359Y63500000D01*
X59307963Y63323373D01*
X59256443Y63153534D01*
X59172778Y62997009D01*
X59143448Y62961271D01*
X59060186Y62859814D01*
X58958729Y62776552D01*
X58922991Y62747222D01*
X58766466Y62663557D01*
X58596627Y62612037D01*
X58530443Y62605519D01*
X58464260Y62599000D01*
X58375740Y62599000D01*
X58309557Y62605519D01*
X58243373Y62612037D01*
X58073534Y62663557D01*
X57917009Y62747222D01*
X57881271Y62776552D01*
X57779814Y62859814D01*
X57696552Y62961271D01*
X57667222Y62997009D01*
X57583557Y63153534D01*
X57532037Y63323373D01*
X57514641Y63500000D01*
X57532037Y63676627D01*
X57583557Y63846466D01*
X57667222Y64002991D01*
X57696552Y64038729D01*
X57779814Y64140186D01*
X57881271Y64223448D01*
X57917009Y64252778D01*
X58073534Y64336443D01*
X58243373Y64387963D01*
X58309557Y64394481D01*
X58375740Y64401000D01*
X58464260Y64401000D01*
X58530443Y64394481D01*
X58530443Y64394481D01*
G37*
G36*
X78850443Y64394481D02*
G01*
X78916627Y64387963D01*
X79086466Y64336443D01*
X79242991Y64252778D01*
X79278729Y64223448D01*
X79380186Y64140186D01*
X79463448Y64038729D01*
X79492778Y64002991D01*
X79576443Y63846466D01*
X79627963Y63676627D01*
X79645359Y63500000D01*
X79627963Y63323373D01*
X79576443Y63153534D01*
X79492778Y62997009D01*
X79463448Y62961271D01*
X79380186Y62859814D01*
X79278729Y62776552D01*
X79242991Y62747222D01*
X79086466Y62663557D01*
X78916627Y62612037D01*
X78850443Y62605519D01*
X78784260Y62599000D01*
X78695740Y62599000D01*
X78629557Y62605519D01*
X78563373Y62612037D01*
X78393534Y62663557D01*
X78237009Y62747222D01*
X78201271Y62776552D01*
X78099814Y62859814D01*
X78016552Y62961271D01*
X77987222Y62997009D01*
X77903557Y63153534D01*
X77852037Y63323373D01*
X77834641Y63500000D01*
X77852037Y63676627D01*
X77903557Y63846466D01*
X77987222Y64002991D01*
X78016552Y64038729D01*
X78099814Y64140186D01*
X78201271Y64223448D01*
X78237009Y64252778D01*
X78393534Y64336443D01*
X78563373Y64387963D01*
X78629557Y64394481D01*
X78695740Y64401000D01*
X78784260Y64401000D01*
X78850443Y64394481D01*
X78850443Y64394481D01*
G37*
G36*
X20430442Y65664482D02*
G01*
X20496627Y65657963D01*
X20666466Y65606443D01*
X20822991Y65522778D01*
X20858729Y65493448D01*
X20960186Y65410186D01*
X21043448Y65308729D01*
X21072778Y65272991D01*
X21156443Y65116466D01*
X21207963Y64946627D01*
X21225359Y64770000D01*
X21207963Y64593373D01*
X21156443Y64423534D01*
X21072778Y64267009D01*
X21043448Y64231271D01*
X20960186Y64129814D01*
X20858729Y64046552D01*
X20822991Y64017222D01*
X20666466Y63933557D01*
X20496627Y63882037D01*
X20430443Y63875519D01*
X20364260Y63869000D01*
X20275740Y63869000D01*
X20209557Y63875519D01*
X20143373Y63882037D01*
X19973534Y63933557D01*
X19817009Y64017222D01*
X19781271Y64046552D01*
X19679814Y64129814D01*
X19596552Y64231271D01*
X19567222Y64267009D01*
X19483557Y64423534D01*
X19432037Y64593373D01*
X19414641Y64770000D01*
X19432037Y64946627D01*
X19483557Y65116466D01*
X19567222Y65272991D01*
X19596552Y65308729D01*
X19679814Y65410186D01*
X19781271Y65493448D01*
X19817009Y65522778D01*
X19973534Y65606443D01*
X20143373Y65657963D01*
X20209558Y65664482D01*
X20275740Y65671000D01*
X20364260Y65671000D01*
X20430442Y65664482D01*
X20430442Y65664482D01*
G37*
G36*
X26780442Y65664482D02*
G01*
X26846627Y65657963D01*
X27016466Y65606443D01*
X27172991Y65522778D01*
X27208729Y65493448D01*
X27310186Y65410186D01*
X27393448Y65308729D01*
X27422778Y65272991D01*
X27506443Y65116466D01*
X27557963Y64946627D01*
X27575359Y64770000D01*
X27557963Y64593373D01*
X27506443Y64423534D01*
X27422778Y64267009D01*
X27393448Y64231271D01*
X27310186Y64129814D01*
X27208729Y64046552D01*
X27172991Y64017222D01*
X27016466Y63933557D01*
X26846627Y63882037D01*
X26780443Y63875519D01*
X26714260Y63869000D01*
X26625740Y63869000D01*
X26559557Y63875519D01*
X26493373Y63882037D01*
X26323534Y63933557D01*
X26167009Y64017222D01*
X26131271Y64046552D01*
X26029814Y64129814D01*
X25946552Y64231271D01*
X25917222Y64267009D01*
X25833557Y64423534D01*
X25782037Y64593373D01*
X25764641Y64770000D01*
X25782037Y64946627D01*
X25833557Y65116466D01*
X25917222Y65272991D01*
X25946552Y65308729D01*
X26029814Y65410186D01*
X26131271Y65493448D01*
X26167009Y65522778D01*
X26323534Y65606443D01*
X26493373Y65657963D01*
X26559558Y65664482D01*
X26625740Y65671000D01*
X26714260Y65671000D01*
X26780442Y65664482D01*
X26780442Y65664482D01*
G37*
G36*
X78850443Y66934481D02*
G01*
X78916627Y66927963D01*
X79086466Y66876443D01*
X79242991Y66792778D01*
X79278729Y66763448D01*
X79380186Y66680186D01*
X79463448Y66578729D01*
X79492778Y66542991D01*
X79576443Y66386466D01*
X79627963Y66216627D01*
X79645359Y66040000D01*
X79627963Y65863373D01*
X79576443Y65693534D01*
X79492778Y65537009D01*
X79463448Y65501271D01*
X79380186Y65399814D01*
X79278729Y65316552D01*
X79242991Y65287222D01*
X79086466Y65203557D01*
X78916627Y65152037D01*
X78850442Y65145518D01*
X78784260Y65139000D01*
X78695740Y65139000D01*
X78629558Y65145518D01*
X78563373Y65152037D01*
X78393534Y65203557D01*
X78237009Y65287222D01*
X78201271Y65316552D01*
X78099814Y65399814D01*
X78016552Y65501271D01*
X77987222Y65537009D01*
X77903557Y65693534D01*
X77852037Y65863373D01*
X77834641Y66040000D01*
X77852037Y66216627D01*
X77903557Y66386466D01*
X77987222Y66542991D01*
X78016552Y66578729D01*
X78099814Y66680186D01*
X78201271Y66763448D01*
X78237009Y66792778D01*
X78393534Y66876443D01*
X78563373Y66927963D01*
X78629557Y66934481D01*
X78695740Y66941000D01*
X78784260Y66941000D01*
X78850443Y66934481D01*
X78850443Y66934481D01*
G37*
G36*
X58530443Y66934481D02*
G01*
X58596627Y66927963D01*
X58766466Y66876443D01*
X58922991Y66792778D01*
X58958729Y66763448D01*
X59060186Y66680186D01*
X59143448Y66578729D01*
X59172778Y66542991D01*
X59256443Y66386466D01*
X59307963Y66216627D01*
X59325359Y66040000D01*
X59307963Y65863373D01*
X59256443Y65693534D01*
X59172778Y65537009D01*
X59143448Y65501271D01*
X59060186Y65399814D01*
X58958729Y65316552D01*
X58922991Y65287222D01*
X58766466Y65203557D01*
X58596627Y65152037D01*
X58530442Y65145518D01*
X58464260Y65139000D01*
X58375740Y65139000D01*
X58309558Y65145518D01*
X58243373Y65152037D01*
X58073534Y65203557D01*
X57917009Y65287222D01*
X57881271Y65316552D01*
X57779814Y65399814D01*
X57696552Y65501271D01*
X57667222Y65537009D01*
X57583557Y65693534D01*
X57532037Y65863373D01*
X57514641Y66040000D01*
X57532037Y66216627D01*
X57583557Y66386466D01*
X57667222Y66542991D01*
X57696552Y66578729D01*
X57779814Y66680186D01*
X57881271Y66763448D01*
X57917009Y66792778D01*
X58073534Y66876443D01*
X58243373Y66927963D01*
X58309557Y66934481D01*
X58375740Y66941000D01*
X58464260Y66941000D01*
X58530443Y66934481D01*
X58530443Y66934481D01*
G37*
G36*
X26780443Y68204481D02*
G01*
X26846627Y68197963D01*
X27016466Y68146443D01*
X27172991Y68062778D01*
X27208729Y68033448D01*
X27310186Y67950186D01*
X27393448Y67848729D01*
X27422778Y67812991D01*
X27506443Y67656466D01*
X27557963Y67486627D01*
X27575359Y67310000D01*
X27557963Y67133373D01*
X27506443Y66963534D01*
X27422778Y66807009D01*
X27393448Y66771271D01*
X27310186Y66669814D01*
X27208729Y66586552D01*
X27172991Y66557222D01*
X27016466Y66473557D01*
X26846627Y66422037D01*
X26780442Y66415518D01*
X26714260Y66409000D01*
X26625740Y66409000D01*
X26559558Y66415518D01*
X26493373Y66422037D01*
X26323534Y66473557D01*
X26167009Y66557222D01*
X26131271Y66586552D01*
X26029814Y66669814D01*
X25946552Y66771271D01*
X25917222Y66807009D01*
X25833557Y66963534D01*
X25782037Y67133373D01*
X25764641Y67310000D01*
X25782037Y67486627D01*
X25833557Y67656466D01*
X25917222Y67812991D01*
X25946552Y67848729D01*
X26029814Y67950186D01*
X26131271Y68033448D01*
X26167009Y68062778D01*
X26323534Y68146443D01*
X26493373Y68197963D01*
X26559557Y68204481D01*
X26625740Y68211000D01*
X26714260Y68211000D01*
X26780443Y68204481D01*
X26780443Y68204481D01*
G37*
G36*
X20430443Y68204481D02*
G01*
X20496627Y68197963D01*
X20666466Y68146443D01*
X20822991Y68062778D01*
X20858729Y68033448D01*
X20960186Y67950186D01*
X21043448Y67848729D01*
X21072778Y67812991D01*
X21156443Y67656466D01*
X21207963Y67486627D01*
X21225359Y67310000D01*
X21207963Y67133373D01*
X21156443Y66963534D01*
X21072778Y66807009D01*
X21043448Y66771271D01*
X20960186Y66669814D01*
X20858729Y66586552D01*
X20822991Y66557222D01*
X20666466Y66473557D01*
X20496627Y66422037D01*
X20430442Y66415518D01*
X20364260Y66409000D01*
X20275740Y66409000D01*
X20209558Y66415518D01*
X20143373Y66422037D01*
X19973534Y66473557D01*
X19817009Y66557222D01*
X19781271Y66586552D01*
X19679814Y66669814D01*
X19596552Y66771271D01*
X19567222Y66807009D01*
X19483557Y66963534D01*
X19432037Y67133373D01*
X19414641Y67310000D01*
X19432037Y67486627D01*
X19483557Y67656466D01*
X19567222Y67812991D01*
X19596552Y67848729D01*
X19679814Y67950186D01*
X19781271Y68033448D01*
X19817009Y68062778D01*
X19973534Y68146443D01*
X20143373Y68197963D01*
X20209557Y68204481D01*
X20275740Y68211000D01*
X20364260Y68211000D01*
X20430443Y68204481D01*
X20430443Y68204481D01*
G37*
G36*
X58530443Y69474481D02*
G01*
X58596627Y69467963D01*
X58766466Y69416443D01*
X58922991Y69332778D01*
X58958729Y69303448D01*
X59060186Y69220186D01*
X59143448Y69118729D01*
X59172778Y69082991D01*
X59256443Y68926466D01*
X59307963Y68756627D01*
X59325359Y68580000D01*
X59307963Y68403373D01*
X59256443Y68233534D01*
X59172778Y68077009D01*
X59143448Y68041271D01*
X59060186Y67939814D01*
X58958729Y67856552D01*
X58922991Y67827222D01*
X58766466Y67743557D01*
X58596627Y67692037D01*
X58530443Y67685519D01*
X58464260Y67679000D01*
X58375740Y67679000D01*
X58309557Y67685519D01*
X58243373Y67692037D01*
X58073534Y67743557D01*
X57917009Y67827222D01*
X57881271Y67856552D01*
X57779814Y67939814D01*
X57696552Y68041271D01*
X57667222Y68077009D01*
X57583557Y68233534D01*
X57532037Y68403373D01*
X57514641Y68580000D01*
X57532037Y68756627D01*
X57583557Y68926466D01*
X57667222Y69082991D01*
X57696552Y69118729D01*
X57779814Y69220186D01*
X57881271Y69303448D01*
X57917009Y69332778D01*
X58073534Y69416443D01*
X58243373Y69467963D01*
X58309557Y69474481D01*
X58375740Y69481000D01*
X58464260Y69481000D01*
X58530443Y69474481D01*
X58530443Y69474481D01*
G37*
G36*
X78850443Y69474481D02*
G01*
X78916627Y69467963D01*
X79086466Y69416443D01*
X79242991Y69332778D01*
X79278729Y69303448D01*
X79380186Y69220186D01*
X79463448Y69118729D01*
X79492778Y69082991D01*
X79576443Y68926466D01*
X79627963Y68756627D01*
X79645359Y68580000D01*
X79627963Y68403373D01*
X79576443Y68233534D01*
X79492778Y68077009D01*
X79463448Y68041271D01*
X79380186Y67939814D01*
X79278729Y67856552D01*
X79242991Y67827222D01*
X79086466Y67743557D01*
X78916627Y67692037D01*
X78850443Y67685519D01*
X78784260Y67679000D01*
X78695740Y67679000D01*
X78629557Y67685519D01*
X78563373Y67692037D01*
X78393534Y67743557D01*
X78237009Y67827222D01*
X78201271Y67856552D01*
X78099814Y67939814D01*
X78016552Y68041271D01*
X77987222Y68077009D01*
X77903557Y68233534D01*
X77852037Y68403373D01*
X77834641Y68580000D01*
X77852037Y68756627D01*
X77903557Y68926466D01*
X77987222Y69082991D01*
X78016552Y69118729D01*
X78099814Y69220186D01*
X78201271Y69303448D01*
X78237009Y69332778D01*
X78393534Y69416443D01*
X78563373Y69467963D01*
X78629557Y69474481D01*
X78695740Y69481000D01*
X78784260Y69481000D01*
X78850443Y69474481D01*
X78850443Y69474481D01*
G37*
G36*
X20430442Y70744482D02*
G01*
X20496627Y70737963D01*
X20666466Y70686443D01*
X20822991Y70602778D01*
X20858729Y70573448D01*
X20960186Y70490186D01*
X21043448Y70388729D01*
X21072778Y70352991D01*
X21156443Y70196466D01*
X21207963Y70026627D01*
X21225359Y69850000D01*
X21207963Y69673373D01*
X21156443Y69503534D01*
X21072778Y69347009D01*
X21043448Y69311271D01*
X20960186Y69209814D01*
X20858729Y69126552D01*
X20822991Y69097222D01*
X20666466Y69013557D01*
X20496627Y68962037D01*
X20430442Y68955518D01*
X20364260Y68949000D01*
X20275740Y68949000D01*
X20209558Y68955518D01*
X20143373Y68962037D01*
X19973534Y69013557D01*
X19817009Y69097222D01*
X19781271Y69126552D01*
X19679814Y69209814D01*
X19596552Y69311271D01*
X19567222Y69347009D01*
X19483557Y69503534D01*
X19432037Y69673373D01*
X19414641Y69850000D01*
X19432037Y70026627D01*
X19483557Y70196466D01*
X19567222Y70352991D01*
X19596552Y70388729D01*
X19679814Y70490186D01*
X19781271Y70573448D01*
X19817009Y70602778D01*
X19973534Y70686443D01*
X20143373Y70737963D01*
X20209558Y70744482D01*
X20275740Y70751000D01*
X20364260Y70751000D01*
X20430442Y70744482D01*
X20430442Y70744482D01*
G37*
G36*
X26780442Y70744482D02*
G01*
X26846627Y70737963D01*
X27016466Y70686443D01*
X27172991Y70602778D01*
X27208729Y70573448D01*
X27310186Y70490186D01*
X27393448Y70388729D01*
X27422778Y70352991D01*
X27506443Y70196466D01*
X27557963Y70026627D01*
X27575359Y69850000D01*
X27557963Y69673373D01*
X27506443Y69503534D01*
X27422778Y69347009D01*
X27393448Y69311271D01*
X27310186Y69209814D01*
X27208729Y69126552D01*
X27172991Y69097222D01*
X27016466Y69013557D01*
X26846627Y68962037D01*
X26780442Y68955518D01*
X26714260Y68949000D01*
X26625740Y68949000D01*
X26559558Y68955518D01*
X26493373Y68962037D01*
X26323534Y69013557D01*
X26167009Y69097222D01*
X26131271Y69126552D01*
X26029814Y69209814D01*
X25946552Y69311271D01*
X25917222Y69347009D01*
X25833557Y69503534D01*
X25782037Y69673373D01*
X25764641Y69850000D01*
X25782037Y70026627D01*
X25833557Y70196466D01*
X25917222Y70352991D01*
X25946552Y70388729D01*
X26029814Y70490186D01*
X26131271Y70573448D01*
X26167009Y70602778D01*
X26323534Y70686443D01*
X26493373Y70737963D01*
X26559558Y70744482D01*
X26625740Y70751000D01*
X26714260Y70751000D01*
X26780442Y70744482D01*
X26780442Y70744482D01*
G37*
G36*
X78850442Y72014482D02*
G01*
X78916627Y72007963D01*
X79086466Y71956443D01*
X79242991Y71872778D01*
X79278729Y71843448D01*
X79380186Y71760186D01*
X79463448Y71658729D01*
X79492778Y71622991D01*
X79576443Y71466466D01*
X79627963Y71296627D01*
X79645359Y71120000D01*
X79627963Y70943373D01*
X79576443Y70773534D01*
X79492778Y70617009D01*
X79463448Y70581271D01*
X79380186Y70479814D01*
X79278729Y70396552D01*
X79242991Y70367222D01*
X79086466Y70283557D01*
X78916627Y70232037D01*
X78850442Y70225518D01*
X78784260Y70219000D01*
X78695740Y70219000D01*
X78629558Y70225518D01*
X78563373Y70232037D01*
X78393534Y70283557D01*
X78237009Y70367222D01*
X78201271Y70396552D01*
X78099814Y70479814D01*
X78016552Y70581271D01*
X77987222Y70617009D01*
X77903557Y70773534D01*
X77852037Y70943373D01*
X77834641Y71120000D01*
X77852037Y71296627D01*
X77903557Y71466466D01*
X77987222Y71622991D01*
X78016552Y71658729D01*
X78099814Y71760186D01*
X78201271Y71843448D01*
X78237009Y71872778D01*
X78393534Y71956443D01*
X78563373Y72007963D01*
X78629558Y72014482D01*
X78695740Y72021000D01*
X78784260Y72021000D01*
X78850442Y72014482D01*
X78850442Y72014482D01*
G37*
G36*
X58530442Y72014482D02*
G01*
X58596627Y72007963D01*
X58766466Y71956443D01*
X58922991Y71872778D01*
X58958729Y71843448D01*
X59060186Y71760186D01*
X59143448Y71658729D01*
X59172778Y71622991D01*
X59256443Y71466466D01*
X59307963Y71296627D01*
X59325359Y71120000D01*
X59307963Y70943373D01*
X59256443Y70773534D01*
X59172778Y70617009D01*
X59143448Y70581271D01*
X59060186Y70479814D01*
X58958729Y70396552D01*
X58922991Y70367222D01*
X58766466Y70283557D01*
X58596627Y70232037D01*
X58530442Y70225518D01*
X58464260Y70219000D01*
X58375740Y70219000D01*
X58309558Y70225518D01*
X58243373Y70232037D01*
X58073534Y70283557D01*
X57917009Y70367222D01*
X57881271Y70396552D01*
X57779814Y70479814D01*
X57696552Y70581271D01*
X57667222Y70617009D01*
X57583557Y70773534D01*
X57532037Y70943373D01*
X57514641Y71120000D01*
X57532037Y71296627D01*
X57583557Y71466466D01*
X57667222Y71622991D01*
X57696552Y71658729D01*
X57779814Y71760186D01*
X57881271Y71843448D01*
X57917009Y71872778D01*
X58073534Y71956443D01*
X58243373Y72007963D01*
X58309558Y72014482D01*
X58375740Y72021000D01*
X58464260Y72021000D01*
X58530442Y72014482D01*
X58530442Y72014482D01*
G37*
G36*
X20430442Y73284482D02*
G01*
X20496627Y73277963D01*
X20666466Y73226443D01*
X20822991Y73142778D01*
X20858729Y73113448D01*
X20960186Y73030186D01*
X21043448Y72928729D01*
X21072778Y72892991D01*
X21156443Y72736466D01*
X21207963Y72566627D01*
X21225359Y72390000D01*
X21207963Y72213373D01*
X21156443Y72043534D01*
X21072778Y71887009D01*
X21043448Y71851271D01*
X20960186Y71749814D01*
X20858729Y71666552D01*
X20822991Y71637222D01*
X20666466Y71553557D01*
X20496627Y71502037D01*
X20430442Y71495518D01*
X20364260Y71489000D01*
X20275740Y71489000D01*
X20209558Y71495518D01*
X20143373Y71502037D01*
X19973534Y71553557D01*
X19817009Y71637222D01*
X19781271Y71666552D01*
X19679814Y71749814D01*
X19596552Y71851271D01*
X19567222Y71887009D01*
X19483557Y72043534D01*
X19432037Y72213373D01*
X19414641Y72390000D01*
X19432037Y72566627D01*
X19483557Y72736466D01*
X19567222Y72892991D01*
X19596552Y72928729D01*
X19679814Y73030186D01*
X19781271Y73113448D01*
X19817009Y73142778D01*
X19973534Y73226443D01*
X20143373Y73277963D01*
X20209558Y73284482D01*
X20275740Y73291000D01*
X20364260Y73291000D01*
X20430442Y73284482D01*
X20430442Y73284482D01*
G37*
G36*
X26780442Y73284482D02*
G01*
X26846627Y73277963D01*
X27016466Y73226443D01*
X27172991Y73142778D01*
X27208729Y73113448D01*
X27310186Y73030186D01*
X27393448Y72928729D01*
X27422778Y72892991D01*
X27506443Y72736466D01*
X27557963Y72566627D01*
X27575359Y72390000D01*
X27557963Y72213373D01*
X27506443Y72043534D01*
X27422778Y71887009D01*
X27393448Y71851271D01*
X27310186Y71749814D01*
X27208729Y71666552D01*
X27172991Y71637222D01*
X27016466Y71553557D01*
X26846627Y71502037D01*
X26780442Y71495518D01*
X26714260Y71489000D01*
X26625740Y71489000D01*
X26559558Y71495518D01*
X26493373Y71502037D01*
X26323534Y71553557D01*
X26167009Y71637222D01*
X26131271Y71666552D01*
X26029814Y71749814D01*
X25946552Y71851271D01*
X25917222Y71887009D01*
X25833557Y72043534D01*
X25782037Y72213373D01*
X25764641Y72390000D01*
X25782037Y72566627D01*
X25833557Y72736466D01*
X25917222Y72892991D01*
X25946552Y72928729D01*
X26029814Y73030186D01*
X26131271Y73113448D01*
X26167009Y73142778D01*
X26323534Y73226443D01*
X26493373Y73277963D01*
X26559558Y73284482D01*
X26625740Y73291000D01*
X26714260Y73291000D01*
X26780442Y73284482D01*
X26780442Y73284482D01*
G37*
G36*
X78850443Y74554481D02*
G01*
X78916627Y74547963D01*
X79086466Y74496443D01*
X79242991Y74412778D01*
X79278729Y74383448D01*
X79380186Y74300186D01*
X79463448Y74198729D01*
X79492778Y74162991D01*
X79576443Y74006466D01*
X79627963Y73836627D01*
X79645359Y73660000D01*
X79627963Y73483373D01*
X79576443Y73313534D01*
X79492778Y73157009D01*
X79463448Y73121271D01*
X79380186Y73019814D01*
X79278729Y72936552D01*
X79242991Y72907222D01*
X79086466Y72823557D01*
X78916627Y72772037D01*
X78850443Y72765519D01*
X78784260Y72759000D01*
X78695740Y72759000D01*
X78629557Y72765519D01*
X78563373Y72772037D01*
X78393534Y72823557D01*
X78237009Y72907222D01*
X78201271Y72936552D01*
X78099814Y73019814D01*
X78016552Y73121271D01*
X77987222Y73157009D01*
X77903557Y73313534D01*
X77852037Y73483373D01*
X77834641Y73660000D01*
X77852037Y73836627D01*
X77903557Y74006466D01*
X77987222Y74162991D01*
X78016552Y74198729D01*
X78099814Y74300186D01*
X78201271Y74383448D01*
X78237009Y74412778D01*
X78393534Y74496443D01*
X78563373Y74547963D01*
X78629557Y74554481D01*
X78695740Y74561000D01*
X78784260Y74561000D01*
X78850443Y74554481D01*
X78850443Y74554481D01*
G37*
G36*
X58530443Y74554481D02*
G01*
X58596627Y74547963D01*
X58766466Y74496443D01*
X58922991Y74412778D01*
X58958729Y74383448D01*
X59060186Y74300186D01*
X59143448Y74198729D01*
X59172778Y74162991D01*
X59256443Y74006466D01*
X59307963Y73836627D01*
X59325359Y73660000D01*
X59307963Y73483373D01*
X59256443Y73313534D01*
X59172778Y73157009D01*
X59143448Y73121271D01*
X59060186Y73019814D01*
X58958729Y72936552D01*
X58922991Y72907222D01*
X58766466Y72823557D01*
X58596627Y72772037D01*
X58530443Y72765519D01*
X58464260Y72759000D01*
X58375740Y72759000D01*
X58309557Y72765519D01*
X58243373Y72772037D01*
X58073534Y72823557D01*
X57917009Y72907222D01*
X57881271Y72936552D01*
X57779814Y73019814D01*
X57696552Y73121271D01*
X57667222Y73157009D01*
X57583557Y73313534D01*
X57532037Y73483373D01*
X57514641Y73660000D01*
X57532037Y73836627D01*
X57583557Y74006466D01*
X57667222Y74162991D01*
X57696552Y74198729D01*
X57779814Y74300186D01*
X57881271Y74383448D01*
X57917009Y74412778D01*
X58073534Y74496443D01*
X58243373Y74547963D01*
X58309557Y74554481D01*
X58375740Y74561000D01*
X58464260Y74561000D01*
X58530443Y74554481D01*
X58530443Y74554481D01*
G37*
G36*
X20430442Y75824482D02*
G01*
X20496627Y75817963D01*
X20666466Y75766443D01*
X20822991Y75682778D01*
X20858729Y75653448D01*
X20960186Y75570186D01*
X21043448Y75468729D01*
X21072778Y75432991D01*
X21156443Y75276466D01*
X21207963Y75106627D01*
X21225359Y74930000D01*
X21207963Y74753373D01*
X21156443Y74583534D01*
X21072778Y74427009D01*
X21043448Y74391271D01*
X20960186Y74289814D01*
X20858729Y74206552D01*
X20822991Y74177222D01*
X20666466Y74093557D01*
X20496627Y74042037D01*
X20430443Y74035519D01*
X20364260Y74029000D01*
X20275740Y74029000D01*
X20209557Y74035519D01*
X20143373Y74042037D01*
X19973534Y74093557D01*
X19817009Y74177222D01*
X19781271Y74206552D01*
X19679814Y74289814D01*
X19596552Y74391271D01*
X19567222Y74427009D01*
X19483557Y74583534D01*
X19432037Y74753373D01*
X19414641Y74930000D01*
X19432037Y75106627D01*
X19483557Y75276466D01*
X19567222Y75432991D01*
X19596552Y75468729D01*
X19679814Y75570186D01*
X19781271Y75653448D01*
X19817009Y75682778D01*
X19973534Y75766443D01*
X20143373Y75817963D01*
X20209558Y75824482D01*
X20275740Y75831000D01*
X20364260Y75831000D01*
X20430442Y75824482D01*
X20430442Y75824482D01*
G37*
G36*
X26780442Y75824482D02*
G01*
X26846627Y75817963D01*
X27016466Y75766443D01*
X27172991Y75682778D01*
X27208729Y75653448D01*
X27310186Y75570186D01*
X27393448Y75468729D01*
X27422778Y75432991D01*
X27506443Y75276466D01*
X27557963Y75106627D01*
X27575359Y74930000D01*
X27557963Y74753373D01*
X27506443Y74583534D01*
X27422778Y74427009D01*
X27393448Y74391271D01*
X27310186Y74289814D01*
X27208729Y74206552D01*
X27172991Y74177222D01*
X27016466Y74093557D01*
X26846627Y74042037D01*
X26780443Y74035519D01*
X26714260Y74029000D01*
X26625740Y74029000D01*
X26559557Y74035519D01*
X26493373Y74042037D01*
X26323534Y74093557D01*
X26167009Y74177222D01*
X26131271Y74206552D01*
X26029814Y74289814D01*
X25946552Y74391271D01*
X25917222Y74427009D01*
X25833557Y74583534D01*
X25782037Y74753373D01*
X25764641Y74930000D01*
X25782037Y75106627D01*
X25833557Y75276466D01*
X25917222Y75432991D01*
X25946552Y75468729D01*
X26029814Y75570186D01*
X26131271Y75653448D01*
X26167009Y75682778D01*
X26323534Y75766443D01*
X26493373Y75817963D01*
X26559558Y75824482D01*
X26625740Y75831000D01*
X26714260Y75831000D01*
X26780442Y75824482D01*
X26780442Y75824482D01*
G37*
G36*
X78850443Y77094481D02*
G01*
X78916627Y77087963D01*
X79086466Y77036443D01*
X79242991Y76952778D01*
X79278729Y76923448D01*
X79380186Y76840186D01*
X79463448Y76738729D01*
X79492778Y76702991D01*
X79576443Y76546466D01*
X79627963Y76376627D01*
X79645359Y76200000D01*
X79627963Y76023373D01*
X79576443Y75853534D01*
X79492778Y75697009D01*
X79463448Y75661271D01*
X79380186Y75559814D01*
X79278729Y75476552D01*
X79242991Y75447222D01*
X79086466Y75363557D01*
X78916627Y75312037D01*
X78850443Y75305519D01*
X78784260Y75299000D01*
X78695740Y75299000D01*
X78629557Y75305519D01*
X78563373Y75312037D01*
X78393534Y75363557D01*
X78237009Y75447222D01*
X78201271Y75476552D01*
X78099814Y75559814D01*
X78016552Y75661271D01*
X77987222Y75697009D01*
X77903557Y75853534D01*
X77852037Y76023373D01*
X77834641Y76200000D01*
X77852037Y76376627D01*
X77903557Y76546466D01*
X77987222Y76702991D01*
X78016552Y76738729D01*
X78099814Y76840186D01*
X78201271Y76923448D01*
X78237009Y76952778D01*
X78393534Y77036443D01*
X78563373Y77087963D01*
X78629557Y77094481D01*
X78695740Y77101000D01*
X78784260Y77101000D01*
X78850443Y77094481D01*
X78850443Y77094481D01*
G37*
G36*
X58530443Y77094481D02*
G01*
X58596627Y77087963D01*
X58766466Y77036443D01*
X58922991Y76952778D01*
X58958729Y76923448D01*
X59060186Y76840186D01*
X59143448Y76738729D01*
X59172778Y76702991D01*
X59256443Y76546466D01*
X59307963Y76376627D01*
X59325359Y76200000D01*
X59307963Y76023373D01*
X59256443Y75853534D01*
X59172778Y75697009D01*
X59143448Y75661271D01*
X59060186Y75559814D01*
X58958729Y75476552D01*
X58922991Y75447222D01*
X58766466Y75363557D01*
X58596627Y75312037D01*
X58530443Y75305519D01*
X58464260Y75299000D01*
X58375740Y75299000D01*
X58309557Y75305519D01*
X58243373Y75312037D01*
X58073534Y75363557D01*
X57917009Y75447222D01*
X57881271Y75476552D01*
X57779814Y75559814D01*
X57696552Y75661271D01*
X57667222Y75697009D01*
X57583557Y75853534D01*
X57532037Y76023373D01*
X57514641Y76200000D01*
X57532037Y76376627D01*
X57583557Y76546466D01*
X57667222Y76702991D01*
X57696552Y76738729D01*
X57779814Y76840186D01*
X57881271Y76923448D01*
X57917009Y76952778D01*
X58073534Y77036443D01*
X58243373Y77087963D01*
X58309557Y77094481D01*
X58375740Y77101000D01*
X58464260Y77101000D01*
X58530443Y77094481D01*
X58530443Y77094481D01*
G37*
G36*
X20430443Y78364481D02*
G01*
X20496627Y78357963D01*
X20666466Y78306443D01*
X20822991Y78222778D01*
X20858729Y78193448D01*
X20960186Y78110186D01*
X21043448Y78008729D01*
X21072778Y77972991D01*
X21156443Y77816466D01*
X21207963Y77646627D01*
X21225359Y77470000D01*
X21207963Y77293373D01*
X21156443Y77123534D01*
X21072778Y76967009D01*
X21043448Y76931271D01*
X20960186Y76829814D01*
X20858729Y76746552D01*
X20822991Y76717222D01*
X20666466Y76633557D01*
X20496627Y76582037D01*
X20430442Y76575518D01*
X20364260Y76569000D01*
X20275740Y76569000D01*
X20209558Y76575518D01*
X20143373Y76582037D01*
X19973534Y76633557D01*
X19817009Y76717222D01*
X19781271Y76746552D01*
X19679814Y76829814D01*
X19596552Y76931271D01*
X19567222Y76967009D01*
X19483557Y77123534D01*
X19432037Y77293373D01*
X19414641Y77470000D01*
X19432037Y77646627D01*
X19483557Y77816466D01*
X19567222Y77972991D01*
X19596552Y78008729D01*
X19679814Y78110186D01*
X19781271Y78193448D01*
X19817009Y78222778D01*
X19973534Y78306443D01*
X20143373Y78357963D01*
X20209557Y78364481D01*
X20275740Y78371000D01*
X20364260Y78371000D01*
X20430443Y78364481D01*
X20430443Y78364481D01*
G37*
G36*
X26780443Y78364481D02*
G01*
X26846627Y78357963D01*
X27016466Y78306443D01*
X27172991Y78222778D01*
X27208729Y78193448D01*
X27310186Y78110186D01*
X27393448Y78008729D01*
X27422778Y77972991D01*
X27506443Y77816466D01*
X27557963Y77646627D01*
X27575359Y77470000D01*
X27557963Y77293373D01*
X27506443Y77123534D01*
X27422778Y76967009D01*
X27393448Y76931271D01*
X27310186Y76829814D01*
X27208729Y76746552D01*
X27172991Y76717222D01*
X27016466Y76633557D01*
X26846627Y76582037D01*
X26780442Y76575518D01*
X26714260Y76569000D01*
X26625740Y76569000D01*
X26559558Y76575518D01*
X26493373Y76582037D01*
X26323534Y76633557D01*
X26167009Y76717222D01*
X26131271Y76746552D01*
X26029814Y76829814D01*
X25946552Y76931271D01*
X25917222Y76967009D01*
X25833557Y77123534D01*
X25782037Y77293373D01*
X25764641Y77470000D01*
X25782037Y77646627D01*
X25833557Y77816466D01*
X25917222Y77972991D01*
X25946552Y78008729D01*
X26029814Y78110186D01*
X26131271Y78193448D01*
X26167009Y78222778D01*
X26323534Y78306443D01*
X26493373Y78357963D01*
X26559557Y78364481D01*
X26625740Y78371000D01*
X26714260Y78371000D01*
X26780443Y78364481D01*
X26780443Y78364481D01*
G37*
G36*
X58530443Y79634481D02*
G01*
X58596627Y79627963D01*
X58766466Y79576443D01*
X58922991Y79492778D01*
X58958729Y79463448D01*
X59060186Y79380186D01*
X59143448Y79278729D01*
X59172778Y79242991D01*
X59256443Y79086466D01*
X59307963Y78916627D01*
X59325359Y78740000D01*
X59307963Y78563373D01*
X59256443Y78393534D01*
X59172778Y78237009D01*
X59143448Y78201271D01*
X59060186Y78099814D01*
X58958729Y78016552D01*
X58922991Y77987222D01*
X58766466Y77903557D01*
X58596627Y77852037D01*
X58530443Y77845519D01*
X58464260Y77839000D01*
X58375740Y77839000D01*
X58309557Y77845519D01*
X58243373Y77852037D01*
X58073534Y77903557D01*
X57917009Y77987222D01*
X57881271Y78016552D01*
X57779814Y78099814D01*
X57696552Y78201271D01*
X57667222Y78237009D01*
X57583557Y78393534D01*
X57532037Y78563373D01*
X57514641Y78740000D01*
X57532037Y78916627D01*
X57583557Y79086466D01*
X57667222Y79242991D01*
X57696552Y79278729D01*
X57779814Y79380186D01*
X57881271Y79463448D01*
X57917009Y79492778D01*
X58073534Y79576443D01*
X58243373Y79627963D01*
X58309557Y79634481D01*
X58375740Y79641000D01*
X58464260Y79641000D01*
X58530443Y79634481D01*
X58530443Y79634481D01*
G37*
G36*
X78850443Y79634481D02*
G01*
X78916627Y79627963D01*
X79086466Y79576443D01*
X79242991Y79492778D01*
X79278729Y79463448D01*
X79380186Y79380186D01*
X79463448Y79278729D01*
X79492778Y79242991D01*
X79576443Y79086466D01*
X79627963Y78916627D01*
X79645359Y78740000D01*
X79627963Y78563373D01*
X79576443Y78393534D01*
X79492778Y78237009D01*
X79463448Y78201271D01*
X79380186Y78099814D01*
X79278729Y78016552D01*
X79242991Y77987222D01*
X79086466Y77903557D01*
X78916627Y77852037D01*
X78850443Y77845519D01*
X78784260Y77839000D01*
X78695740Y77839000D01*
X78629557Y77845519D01*
X78563373Y77852037D01*
X78393534Y77903557D01*
X78237009Y77987222D01*
X78201271Y78016552D01*
X78099814Y78099814D01*
X78016552Y78201271D01*
X77987222Y78237009D01*
X77903557Y78393534D01*
X77852037Y78563373D01*
X77834641Y78740000D01*
X77852037Y78916627D01*
X77903557Y79086466D01*
X77987222Y79242991D01*
X78016552Y79278729D01*
X78099814Y79380186D01*
X78201271Y79463448D01*
X78237009Y79492778D01*
X78393534Y79576443D01*
X78563373Y79627963D01*
X78629557Y79634481D01*
X78695740Y79641000D01*
X78784260Y79641000D01*
X78850443Y79634481D01*
X78850443Y79634481D01*
G37*
G36*
X20430442Y80904482D02*
G01*
X20496627Y80897963D01*
X20666466Y80846443D01*
X20822991Y80762778D01*
X20858729Y80733448D01*
X20960186Y80650186D01*
X21043448Y80548729D01*
X21072778Y80512991D01*
X21156443Y80356466D01*
X21207963Y80186627D01*
X21225359Y80010000D01*
X21207963Y79833373D01*
X21156443Y79663534D01*
X21072778Y79507009D01*
X21043448Y79471271D01*
X20960186Y79369814D01*
X20858729Y79286552D01*
X20822991Y79257222D01*
X20666466Y79173557D01*
X20496627Y79122037D01*
X20430442Y79115518D01*
X20364260Y79109000D01*
X20275740Y79109000D01*
X20209558Y79115518D01*
X20143373Y79122037D01*
X19973534Y79173557D01*
X19817009Y79257222D01*
X19781271Y79286552D01*
X19679814Y79369814D01*
X19596552Y79471271D01*
X19567222Y79507009D01*
X19483557Y79663534D01*
X19432037Y79833373D01*
X19414641Y80010000D01*
X19432037Y80186627D01*
X19483557Y80356466D01*
X19567222Y80512991D01*
X19596552Y80548729D01*
X19679814Y80650186D01*
X19781271Y80733448D01*
X19817009Y80762778D01*
X19973534Y80846443D01*
X20143373Y80897963D01*
X20209558Y80904482D01*
X20275740Y80911000D01*
X20364260Y80911000D01*
X20430442Y80904482D01*
X20430442Y80904482D01*
G37*
G36*
X26780442Y80904482D02*
G01*
X26846627Y80897963D01*
X27016466Y80846443D01*
X27172991Y80762778D01*
X27208729Y80733448D01*
X27310186Y80650186D01*
X27393448Y80548729D01*
X27422778Y80512991D01*
X27506443Y80356466D01*
X27557963Y80186627D01*
X27575359Y80010000D01*
X27557963Y79833373D01*
X27506443Y79663534D01*
X27422778Y79507009D01*
X27393448Y79471271D01*
X27310186Y79369814D01*
X27208729Y79286552D01*
X27172991Y79257222D01*
X27016466Y79173557D01*
X26846627Y79122037D01*
X26780442Y79115518D01*
X26714260Y79109000D01*
X26625740Y79109000D01*
X26559558Y79115518D01*
X26493373Y79122037D01*
X26323534Y79173557D01*
X26167009Y79257222D01*
X26131271Y79286552D01*
X26029814Y79369814D01*
X25946552Y79471271D01*
X25917222Y79507009D01*
X25833557Y79663534D01*
X25782037Y79833373D01*
X25764641Y80010000D01*
X25782037Y80186627D01*
X25833557Y80356466D01*
X25917222Y80512991D01*
X25946552Y80548729D01*
X26029814Y80650186D01*
X26131271Y80733448D01*
X26167009Y80762778D01*
X26323534Y80846443D01*
X26493373Y80897963D01*
X26559558Y80904482D01*
X26625740Y80911000D01*
X26714260Y80911000D01*
X26780442Y80904482D01*
X26780442Y80904482D01*
G37*
G36*
X58530442Y82174482D02*
G01*
X58596627Y82167963D01*
X58766466Y82116443D01*
X58922991Y82032778D01*
X58958729Y82003448D01*
X59060186Y81920186D01*
X59143448Y81818729D01*
X59172778Y81782991D01*
X59256443Y81626466D01*
X59307963Y81456627D01*
X59325359Y81280000D01*
X59307963Y81103373D01*
X59256443Y80933534D01*
X59172778Y80777009D01*
X59143448Y80741271D01*
X59060186Y80639814D01*
X58958729Y80556552D01*
X58922991Y80527222D01*
X58766466Y80443557D01*
X58596627Y80392037D01*
X58530442Y80385518D01*
X58464260Y80379000D01*
X58375740Y80379000D01*
X58309558Y80385518D01*
X58243373Y80392037D01*
X58073534Y80443557D01*
X57917009Y80527222D01*
X57881271Y80556552D01*
X57779814Y80639814D01*
X57696552Y80741271D01*
X57667222Y80777009D01*
X57583557Y80933534D01*
X57532037Y81103373D01*
X57514641Y81280000D01*
X57532037Y81456627D01*
X57583557Y81626466D01*
X57667222Y81782991D01*
X57696552Y81818729D01*
X57779814Y81920186D01*
X57881271Y82003448D01*
X57917009Y82032778D01*
X58073534Y82116443D01*
X58243373Y82167963D01*
X58309558Y82174482D01*
X58375740Y82181000D01*
X58464260Y82181000D01*
X58530442Y82174482D01*
X58530442Y82174482D01*
G37*
G36*
X78850442Y82174482D02*
G01*
X78916627Y82167963D01*
X79086466Y82116443D01*
X79242991Y82032778D01*
X79278729Y82003448D01*
X79380186Y81920186D01*
X79463448Y81818729D01*
X79492778Y81782991D01*
X79576443Y81626466D01*
X79627963Y81456627D01*
X79645359Y81280000D01*
X79627963Y81103373D01*
X79576443Y80933534D01*
X79492778Y80777009D01*
X79463448Y80741271D01*
X79380186Y80639814D01*
X79278729Y80556552D01*
X79242991Y80527222D01*
X79086466Y80443557D01*
X78916627Y80392037D01*
X78850442Y80385518D01*
X78784260Y80379000D01*
X78695740Y80379000D01*
X78629558Y80385518D01*
X78563373Y80392037D01*
X78393534Y80443557D01*
X78237009Y80527222D01*
X78201271Y80556552D01*
X78099814Y80639814D01*
X78016552Y80741271D01*
X77987222Y80777009D01*
X77903557Y80933534D01*
X77852037Y81103373D01*
X77834641Y81280000D01*
X77852037Y81456627D01*
X77903557Y81626466D01*
X77987222Y81782991D01*
X78016552Y81818729D01*
X78099814Y81920186D01*
X78201271Y82003448D01*
X78237009Y82032778D01*
X78393534Y82116443D01*
X78563373Y82167963D01*
X78629558Y82174482D01*
X78695740Y82181000D01*
X78784260Y82181000D01*
X78850442Y82174482D01*
X78850442Y82174482D01*
G37*
G36*
X20430442Y83444482D02*
G01*
X20496627Y83437963D01*
X20666466Y83386443D01*
X20822991Y83302778D01*
X20858729Y83273448D01*
X20960186Y83190186D01*
X21043448Y83088729D01*
X21072778Y83052991D01*
X21156443Y82896466D01*
X21207963Y82726627D01*
X21225359Y82550000D01*
X21207963Y82373373D01*
X21156443Y82203534D01*
X21072778Y82047009D01*
X21043448Y82011271D01*
X20960186Y81909814D01*
X20858729Y81826552D01*
X20822991Y81797222D01*
X20666466Y81713557D01*
X20496627Y81662037D01*
X20430442Y81655518D01*
X20364260Y81649000D01*
X20275740Y81649000D01*
X20209558Y81655518D01*
X20143373Y81662037D01*
X19973534Y81713557D01*
X19817009Y81797222D01*
X19781271Y81826552D01*
X19679814Y81909814D01*
X19596552Y82011271D01*
X19567222Y82047009D01*
X19483557Y82203534D01*
X19432037Y82373373D01*
X19414641Y82550000D01*
X19432037Y82726627D01*
X19483557Y82896466D01*
X19567222Y83052991D01*
X19596552Y83088729D01*
X19679814Y83190186D01*
X19781271Y83273448D01*
X19817009Y83302778D01*
X19973534Y83386443D01*
X20143373Y83437963D01*
X20209558Y83444482D01*
X20275740Y83451000D01*
X20364260Y83451000D01*
X20430442Y83444482D01*
X20430442Y83444482D01*
G37*
G36*
X26780442Y83444482D02*
G01*
X26846627Y83437963D01*
X27016466Y83386443D01*
X27172991Y83302778D01*
X27208729Y83273448D01*
X27310186Y83190186D01*
X27393448Y83088729D01*
X27422778Y83052991D01*
X27506443Y82896466D01*
X27557963Y82726627D01*
X27575359Y82550000D01*
X27557963Y82373373D01*
X27506443Y82203534D01*
X27422778Y82047009D01*
X27393448Y82011271D01*
X27310186Y81909814D01*
X27208729Y81826552D01*
X27172991Y81797222D01*
X27016466Y81713557D01*
X26846627Y81662037D01*
X26780442Y81655518D01*
X26714260Y81649000D01*
X26625740Y81649000D01*
X26559558Y81655518D01*
X26493373Y81662037D01*
X26323534Y81713557D01*
X26167009Y81797222D01*
X26131271Y81826552D01*
X26029814Y81909814D01*
X25946552Y82011271D01*
X25917222Y82047009D01*
X25833557Y82203534D01*
X25782037Y82373373D01*
X25764641Y82550000D01*
X25782037Y82726627D01*
X25833557Y82896466D01*
X25917222Y83052991D01*
X25946552Y83088729D01*
X26029814Y83190186D01*
X26131271Y83273448D01*
X26167009Y83302778D01*
X26323534Y83386443D01*
X26493373Y83437963D01*
X26559558Y83444482D01*
X26625740Y83451000D01*
X26714260Y83451000D01*
X26780442Y83444482D01*
X26780442Y83444482D01*
G37*
G36*
X58530443Y84714481D02*
G01*
X58596627Y84707963D01*
X58766466Y84656443D01*
X58922991Y84572778D01*
X58958729Y84543448D01*
X59060186Y84460186D01*
X59143448Y84358729D01*
X59172778Y84322991D01*
X59256443Y84166466D01*
X59307963Y83996627D01*
X59325359Y83820000D01*
X59307963Y83643373D01*
X59256443Y83473534D01*
X59172778Y83317009D01*
X59143448Y83281271D01*
X59060186Y83179814D01*
X58958729Y83096552D01*
X58922991Y83067222D01*
X58766466Y82983557D01*
X58596627Y82932037D01*
X58530443Y82925519D01*
X58464260Y82919000D01*
X58375740Y82919000D01*
X58309557Y82925519D01*
X58243373Y82932037D01*
X58073534Y82983557D01*
X57917009Y83067222D01*
X57881271Y83096552D01*
X57779814Y83179814D01*
X57696552Y83281271D01*
X57667222Y83317009D01*
X57583557Y83473534D01*
X57532037Y83643373D01*
X57514641Y83820000D01*
X57532037Y83996627D01*
X57583557Y84166466D01*
X57667222Y84322991D01*
X57696552Y84358729D01*
X57779814Y84460186D01*
X57881271Y84543448D01*
X57917009Y84572778D01*
X58073534Y84656443D01*
X58243373Y84707963D01*
X58309557Y84714481D01*
X58375740Y84721000D01*
X58464260Y84721000D01*
X58530443Y84714481D01*
X58530443Y84714481D01*
G37*
G36*
X78850443Y84714481D02*
G01*
X78916627Y84707963D01*
X79086466Y84656443D01*
X79242991Y84572778D01*
X79278729Y84543448D01*
X79380186Y84460186D01*
X79463448Y84358729D01*
X79492778Y84322991D01*
X79576443Y84166466D01*
X79627963Y83996627D01*
X79645359Y83820000D01*
X79627963Y83643373D01*
X79576443Y83473534D01*
X79492778Y83317009D01*
X79463448Y83281271D01*
X79380186Y83179814D01*
X79278729Y83096552D01*
X79242991Y83067222D01*
X79086466Y82983557D01*
X78916627Y82932037D01*
X78850443Y82925519D01*
X78784260Y82919000D01*
X78695740Y82919000D01*
X78629557Y82925519D01*
X78563373Y82932037D01*
X78393534Y82983557D01*
X78237009Y83067222D01*
X78201271Y83096552D01*
X78099814Y83179814D01*
X78016552Y83281271D01*
X77987222Y83317009D01*
X77903557Y83473534D01*
X77852037Y83643373D01*
X77834641Y83820000D01*
X77852037Y83996627D01*
X77903557Y84166466D01*
X77987222Y84322991D01*
X78016552Y84358729D01*
X78099814Y84460186D01*
X78201271Y84543448D01*
X78237009Y84572778D01*
X78393534Y84656443D01*
X78563373Y84707963D01*
X78629557Y84714481D01*
X78695740Y84721000D01*
X78784260Y84721000D01*
X78850443Y84714481D01*
X78850443Y84714481D01*
G37*
G36*
X26780442Y85984482D02*
G01*
X26846627Y85977963D01*
X27016466Y85926443D01*
X27172991Y85842778D01*
X27208729Y85813448D01*
X27310186Y85730186D01*
X27393448Y85628729D01*
X27422778Y85592991D01*
X27506443Y85436466D01*
X27557963Y85266627D01*
X27575359Y85090000D01*
X27557963Y84913373D01*
X27506443Y84743534D01*
X27422778Y84587009D01*
X27393448Y84551271D01*
X27310186Y84449814D01*
X27208729Y84366552D01*
X27172991Y84337222D01*
X27016466Y84253557D01*
X26846627Y84202037D01*
X26780443Y84195519D01*
X26714260Y84189000D01*
X26625740Y84189000D01*
X26559557Y84195519D01*
X26493373Y84202037D01*
X26323534Y84253557D01*
X26167009Y84337222D01*
X26131271Y84366552D01*
X26029814Y84449814D01*
X25946552Y84551271D01*
X25917222Y84587009D01*
X25833557Y84743534D01*
X25782037Y84913373D01*
X25764641Y85090000D01*
X25782037Y85266627D01*
X25833557Y85436466D01*
X25917222Y85592991D01*
X25946552Y85628729D01*
X26029814Y85730186D01*
X26131271Y85813448D01*
X26167009Y85842778D01*
X26323534Y85926443D01*
X26493373Y85977963D01*
X26559558Y85984482D01*
X26625740Y85991000D01*
X26714260Y85991000D01*
X26780442Y85984482D01*
X26780442Y85984482D01*
G37*
G36*
X20430442Y85984482D02*
G01*
X20496627Y85977963D01*
X20666466Y85926443D01*
X20822991Y85842778D01*
X20858729Y85813448D01*
X20960186Y85730186D01*
X21043448Y85628729D01*
X21072778Y85592991D01*
X21156443Y85436466D01*
X21207963Y85266627D01*
X21225359Y85090000D01*
X21207963Y84913373D01*
X21156443Y84743534D01*
X21072778Y84587009D01*
X21043448Y84551271D01*
X20960186Y84449814D01*
X20858729Y84366552D01*
X20822991Y84337222D01*
X20666466Y84253557D01*
X20496627Y84202037D01*
X20430443Y84195519D01*
X20364260Y84189000D01*
X20275740Y84189000D01*
X20209557Y84195519D01*
X20143373Y84202037D01*
X19973534Y84253557D01*
X19817009Y84337222D01*
X19781271Y84366552D01*
X19679814Y84449814D01*
X19596552Y84551271D01*
X19567222Y84587009D01*
X19483557Y84743534D01*
X19432037Y84913373D01*
X19414641Y85090000D01*
X19432037Y85266627D01*
X19483557Y85436466D01*
X19567222Y85592991D01*
X19596552Y85628729D01*
X19679814Y85730186D01*
X19781271Y85813448D01*
X19817009Y85842778D01*
X19973534Y85926443D01*
X20143373Y85977963D01*
X20209558Y85984482D01*
X20275740Y85991000D01*
X20364260Y85991000D01*
X20430442Y85984482D01*
X20430442Y85984482D01*
G37*
G36*
X79641000Y85459000D02*
G01*
X77839000Y85459000D01*
X77839000Y87261000D01*
X79641000Y87261000D01*
X79641000Y85459000D01*
X79641000Y85459000D01*
G37*
G36*
X58530442Y87254482D02*
G01*
X58596627Y87247963D01*
X58766466Y87196443D01*
X58922991Y87112778D01*
X58958729Y87083448D01*
X59060186Y87000186D01*
X59143448Y86898729D01*
X59172778Y86862991D01*
X59256443Y86706466D01*
X59307963Y86536627D01*
X59325359Y86360000D01*
X59307963Y86183373D01*
X59256443Y86013534D01*
X59172778Y85857009D01*
X59143448Y85821271D01*
X59060186Y85719814D01*
X58958729Y85636552D01*
X58922991Y85607222D01*
X58766466Y85523557D01*
X58596627Y85472037D01*
X58530443Y85465519D01*
X58464260Y85459000D01*
X58375740Y85459000D01*
X58309557Y85465519D01*
X58243373Y85472037D01*
X58073534Y85523557D01*
X57917009Y85607222D01*
X57881271Y85636552D01*
X57779814Y85719814D01*
X57696552Y85821271D01*
X57667222Y85857009D01*
X57583557Y86013534D01*
X57532037Y86183373D01*
X57514641Y86360000D01*
X57532037Y86536627D01*
X57583557Y86706466D01*
X57667222Y86862991D01*
X57696552Y86898729D01*
X57779814Y87000186D01*
X57881271Y87083448D01*
X57917009Y87112778D01*
X58073534Y87196443D01*
X58243373Y87247963D01*
X58309558Y87254482D01*
X58375740Y87261000D01*
X58464260Y87261000D01*
X58530442Y87254482D01*
X58530442Y87254482D01*
G37*
G36*
X26780443Y88524481D02*
G01*
X26846627Y88517963D01*
X27016466Y88466443D01*
X27172991Y88382778D01*
X27208729Y88353448D01*
X27310186Y88270186D01*
X27393448Y88168729D01*
X27422778Y88132991D01*
X27506443Y87976466D01*
X27557963Y87806627D01*
X27575359Y87630000D01*
X27557963Y87453373D01*
X27506443Y87283534D01*
X27422778Y87127009D01*
X27393448Y87091271D01*
X27310186Y86989814D01*
X27208729Y86906552D01*
X27172991Y86877222D01*
X27016466Y86793557D01*
X26846627Y86742037D01*
X26780442Y86735518D01*
X26714260Y86729000D01*
X26625740Y86729000D01*
X26559558Y86735518D01*
X26493373Y86742037D01*
X26323534Y86793557D01*
X26167009Y86877222D01*
X26131271Y86906552D01*
X26029814Y86989814D01*
X25946552Y87091271D01*
X25917222Y87127009D01*
X25833557Y87283534D01*
X25782037Y87453373D01*
X25764641Y87630000D01*
X25782037Y87806627D01*
X25833557Y87976466D01*
X25917222Y88132991D01*
X25946552Y88168729D01*
X26029814Y88270186D01*
X26131271Y88353448D01*
X26167009Y88382778D01*
X26323534Y88466443D01*
X26493373Y88517963D01*
X26559557Y88524481D01*
X26625740Y88531000D01*
X26714260Y88531000D01*
X26780443Y88524481D01*
X26780443Y88524481D01*
G37*
G36*
X20430443Y88524481D02*
G01*
X20496627Y88517963D01*
X20666466Y88466443D01*
X20822991Y88382778D01*
X20858729Y88353448D01*
X20960186Y88270186D01*
X21043448Y88168729D01*
X21072778Y88132991D01*
X21156443Y87976466D01*
X21207963Y87806627D01*
X21225359Y87630000D01*
X21207963Y87453373D01*
X21156443Y87283534D01*
X21072778Y87127009D01*
X21043448Y87091271D01*
X20960186Y86989814D01*
X20858729Y86906552D01*
X20822991Y86877222D01*
X20666466Y86793557D01*
X20496627Y86742037D01*
X20430442Y86735518D01*
X20364260Y86729000D01*
X20275740Y86729000D01*
X20209558Y86735518D01*
X20143373Y86742037D01*
X19973534Y86793557D01*
X19817009Y86877222D01*
X19781271Y86906552D01*
X19679814Y86989814D01*
X19596552Y87091271D01*
X19567222Y87127009D01*
X19483557Y87283534D01*
X19432037Y87453373D01*
X19414641Y87630000D01*
X19432037Y87806627D01*
X19483557Y87976466D01*
X19567222Y88132991D01*
X19596552Y88168729D01*
X19679814Y88270186D01*
X19781271Y88353448D01*
X19817009Y88382778D01*
X19973534Y88466443D01*
X20143373Y88517963D01*
X20209557Y88524481D01*
X20275740Y88531000D01*
X20364260Y88531000D01*
X20430443Y88524481D01*
X20430443Y88524481D01*
G37*
G36*
X58530443Y89794481D02*
G01*
X58596627Y89787963D01*
X58766466Y89736443D01*
X58922991Y89652778D01*
X58958729Y89623448D01*
X59060186Y89540186D01*
X59143448Y89438729D01*
X59172778Y89402991D01*
X59256443Y89246466D01*
X59307963Y89076627D01*
X59325359Y88900000D01*
X59307963Y88723373D01*
X59256443Y88553534D01*
X59172778Y88397009D01*
X59143448Y88361271D01*
X59060186Y88259814D01*
X58958729Y88176552D01*
X58922991Y88147222D01*
X58766466Y88063557D01*
X58596627Y88012037D01*
X58530442Y88005518D01*
X58464260Y87999000D01*
X58375740Y87999000D01*
X58309558Y88005518D01*
X58243373Y88012037D01*
X58073534Y88063557D01*
X57917009Y88147222D01*
X57881271Y88176552D01*
X57779814Y88259814D01*
X57696552Y88361271D01*
X57667222Y88397009D01*
X57583557Y88553534D01*
X57532037Y88723373D01*
X57514641Y88900000D01*
X57532037Y89076627D01*
X57583557Y89246466D01*
X57667222Y89402991D01*
X57696552Y89438729D01*
X57779814Y89540186D01*
X57881271Y89623448D01*
X57917009Y89652778D01*
X58073534Y89736443D01*
X58243373Y89787963D01*
X58309557Y89794481D01*
X58375740Y89801000D01*
X58464260Y89801000D01*
X58530443Y89794481D01*
X58530443Y89794481D01*
G37*
G36*
X26780443Y91064481D02*
G01*
X26846627Y91057963D01*
X27016466Y91006443D01*
X27172991Y90922778D01*
X27208729Y90893448D01*
X27310186Y90810186D01*
X27393448Y90708729D01*
X27422778Y90672991D01*
X27506443Y90516466D01*
X27557963Y90346627D01*
X27575359Y90170000D01*
X27557963Y89993373D01*
X27506443Y89823534D01*
X27422778Y89667009D01*
X27393448Y89631271D01*
X27310186Y89529814D01*
X27208729Y89446552D01*
X27172991Y89417222D01*
X27016466Y89333557D01*
X26846627Y89282037D01*
X26780443Y89275519D01*
X26714260Y89269000D01*
X26625740Y89269000D01*
X26559557Y89275519D01*
X26493373Y89282037D01*
X26323534Y89333557D01*
X26167009Y89417222D01*
X26131271Y89446552D01*
X26029814Y89529814D01*
X25946552Y89631271D01*
X25917222Y89667009D01*
X25833557Y89823534D01*
X25782037Y89993373D01*
X25764641Y90170000D01*
X25782037Y90346627D01*
X25833557Y90516466D01*
X25917222Y90672991D01*
X25946552Y90708729D01*
X26029814Y90810186D01*
X26131271Y90893448D01*
X26167009Y90922778D01*
X26323534Y91006443D01*
X26493373Y91057963D01*
X26559557Y91064481D01*
X26625740Y91071000D01*
X26714260Y91071000D01*
X26780443Y91064481D01*
X26780443Y91064481D01*
G37*
G36*
X20430443Y91064481D02*
G01*
X20496627Y91057963D01*
X20666466Y91006443D01*
X20822991Y90922778D01*
X20858729Y90893448D01*
X20960186Y90810186D01*
X21043448Y90708729D01*
X21072778Y90672991D01*
X21156443Y90516466D01*
X21207963Y90346627D01*
X21225359Y90170000D01*
X21207963Y89993373D01*
X21156443Y89823534D01*
X21072778Y89667009D01*
X21043448Y89631271D01*
X20960186Y89529814D01*
X20858729Y89446552D01*
X20822991Y89417222D01*
X20666466Y89333557D01*
X20496627Y89282037D01*
X20430443Y89275519D01*
X20364260Y89269000D01*
X20275740Y89269000D01*
X20209557Y89275519D01*
X20143373Y89282037D01*
X19973534Y89333557D01*
X19817009Y89417222D01*
X19781271Y89446552D01*
X19679814Y89529814D01*
X19596552Y89631271D01*
X19567222Y89667009D01*
X19483557Y89823534D01*
X19432037Y89993373D01*
X19414641Y90170000D01*
X19432037Y90346627D01*
X19483557Y90516466D01*
X19567222Y90672991D01*
X19596552Y90708729D01*
X19679814Y90810186D01*
X19781271Y90893448D01*
X19817009Y90922778D01*
X19973534Y91006443D01*
X20143373Y91057963D01*
X20209557Y91064481D01*
X20275740Y91071000D01*
X20364260Y91071000D01*
X20430443Y91064481D01*
X20430443Y91064481D01*
G37*
G36*
X58530442Y92334482D02*
G01*
X58596627Y92327963D01*
X58766466Y92276443D01*
X58922991Y92192778D01*
X58958729Y92163448D01*
X59060186Y92080186D01*
X59143448Y91978729D01*
X59172778Y91942991D01*
X59256443Y91786466D01*
X59307963Y91616627D01*
X59325359Y91440000D01*
X59307963Y91263373D01*
X59256443Y91093534D01*
X59172778Y90937009D01*
X59143448Y90901271D01*
X59060186Y90799814D01*
X58958729Y90716552D01*
X58922991Y90687222D01*
X58766466Y90603557D01*
X58596627Y90552037D01*
X58530442Y90545518D01*
X58464260Y90539000D01*
X58375740Y90539000D01*
X58309558Y90545518D01*
X58243373Y90552037D01*
X58073534Y90603557D01*
X57917009Y90687222D01*
X57881271Y90716552D01*
X57779814Y90799814D01*
X57696552Y90901271D01*
X57667222Y90937009D01*
X57583557Y91093534D01*
X57532037Y91263373D01*
X57514641Y91440000D01*
X57532037Y91616627D01*
X57583557Y91786466D01*
X57667222Y91942991D01*
X57696552Y91978729D01*
X57779814Y92080186D01*
X57881271Y92163448D01*
X57917009Y92192778D01*
X58073534Y92276443D01*
X58243373Y92327963D01*
X58309558Y92334482D01*
X58375740Y92341000D01*
X58464260Y92341000D01*
X58530442Y92334482D01*
X58530442Y92334482D01*
G37*
G36*
X20430443Y93604481D02*
G01*
X20496627Y93597963D01*
X20666466Y93546443D01*
X20822991Y93462778D01*
X20858729Y93433448D01*
X20960186Y93350186D01*
X21043448Y93248729D01*
X21072778Y93212991D01*
X21156443Y93056466D01*
X21207963Y92886627D01*
X21225359Y92710000D01*
X21207963Y92533373D01*
X21156443Y92363534D01*
X21072778Y92207009D01*
X21043448Y92171271D01*
X20960186Y92069814D01*
X20858729Y91986552D01*
X20822991Y91957222D01*
X20666466Y91873557D01*
X20496627Y91822037D01*
X20430442Y91815518D01*
X20364260Y91809000D01*
X20275740Y91809000D01*
X20209558Y91815518D01*
X20143373Y91822037D01*
X19973534Y91873557D01*
X19817009Y91957222D01*
X19781271Y91986552D01*
X19679814Y92069814D01*
X19596552Y92171271D01*
X19567222Y92207009D01*
X19483557Y92363534D01*
X19432037Y92533373D01*
X19414641Y92710000D01*
X19432037Y92886627D01*
X19483557Y93056466D01*
X19567222Y93212991D01*
X19596552Y93248729D01*
X19679814Y93350186D01*
X19781271Y93433448D01*
X19817009Y93462778D01*
X19973534Y93546443D01*
X20143373Y93597963D01*
X20209558Y93604482D01*
X20275740Y93611000D01*
X20364260Y93611000D01*
X20430443Y93604481D01*
X20430443Y93604481D01*
G37*
G36*
X26780443Y93604481D02*
G01*
X26846627Y93597963D01*
X27016466Y93546443D01*
X27172991Y93462778D01*
X27208729Y93433448D01*
X27310186Y93350186D01*
X27393448Y93248729D01*
X27422778Y93212991D01*
X27506443Y93056466D01*
X27557963Y92886627D01*
X27575359Y92710000D01*
X27557963Y92533373D01*
X27506443Y92363534D01*
X27422778Y92207009D01*
X27393448Y92171271D01*
X27310186Y92069814D01*
X27208729Y91986552D01*
X27172991Y91957222D01*
X27016466Y91873557D01*
X26846627Y91822037D01*
X26780442Y91815518D01*
X26714260Y91809000D01*
X26625740Y91809000D01*
X26559558Y91815518D01*
X26493373Y91822037D01*
X26323534Y91873557D01*
X26167009Y91957222D01*
X26131271Y91986552D01*
X26029814Y92069814D01*
X25946552Y92171271D01*
X25917222Y92207009D01*
X25833557Y92363534D01*
X25782037Y92533373D01*
X25764641Y92710000D01*
X25782037Y92886627D01*
X25833557Y93056466D01*
X25917222Y93212991D01*
X25946552Y93248729D01*
X26029814Y93350186D01*
X26131271Y93433448D01*
X26167009Y93462778D01*
X26323534Y93546443D01*
X26493373Y93597963D01*
X26559558Y93604482D01*
X26625740Y93611000D01*
X26714260Y93611000D01*
X26780443Y93604481D01*
X26780443Y93604481D01*
G37*
G36*
X58530443Y94874481D02*
G01*
X58596627Y94867963D01*
X58766466Y94816443D01*
X58922991Y94732778D01*
X58958729Y94703448D01*
X59060186Y94620186D01*
X59143448Y94518729D01*
X59172778Y94482991D01*
X59256443Y94326466D01*
X59307963Y94156627D01*
X59325359Y93980000D01*
X59307963Y93803373D01*
X59256443Y93633534D01*
X59172778Y93477009D01*
X59143448Y93441271D01*
X59060186Y93339814D01*
X58958729Y93256552D01*
X58922991Y93227222D01*
X58766466Y93143557D01*
X58596627Y93092037D01*
X58530442Y93085518D01*
X58464260Y93079000D01*
X58375740Y93079000D01*
X58309558Y93085518D01*
X58243373Y93092037D01*
X58073534Y93143557D01*
X57917009Y93227222D01*
X57881271Y93256552D01*
X57779814Y93339814D01*
X57696552Y93441271D01*
X57667222Y93477009D01*
X57583557Y93633534D01*
X57532037Y93803373D01*
X57514641Y93980000D01*
X57532037Y94156627D01*
X57583557Y94326466D01*
X57667222Y94482991D01*
X57696552Y94518729D01*
X57779814Y94620186D01*
X57881271Y94703448D01*
X57917009Y94732778D01*
X58073534Y94816443D01*
X58243373Y94867963D01*
X58309557Y94874481D01*
X58375740Y94881000D01*
X58464260Y94881000D01*
X58530443Y94874481D01*
X58530443Y94874481D01*
G37*
G36*
X20430442Y96144482D02*
G01*
X20496627Y96137963D01*
X20666466Y96086443D01*
X20822991Y96002778D01*
X20858729Y95973448D01*
X20960186Y95890186D01*
X21043448Y95788729D01*
X21072778Y95752991D01*
X21156443Y95596466D01*
X21207963Y95426627D01*
X21225359Y95250000D01*
X21207963Y95073373D01*
X21156443Y94903534D01*
X21072778Y94747009D01*
X21043448Y94711271D01*
X20960186Y94609814D01*
X20858729Y94526552D01*
X20822991Y94497222D01*
X20666466Y94413557D01*
X20496627Y94362037D01*
X20430442Y94355518D01*
X20364260Y94349000D01*
X20275740Y94349000D01*
X20209558Y94355518D01*
X20143373Y94362037D01*
X19973534Y94413557D01*
X19817009Y94497222D01*
X19781271Y94526552D01*
X19679814Y94609814D01*
X19596552Y94711271D01*
X19567222Y94747009D01*
X19483557Y94903534D01*
X19432037Y95073373D01*
X19414641Y95250000D01*
X19432037Y95426627D01*
X19483557Y95596466D01*
X19567222Y95752991D01*
X19596552Y95788729D01*
X19679814Y95890186D01*
X19781271Y95973448D01*
X19817009Y96002778D01*
X19973534Y96086443D01*
X20143373Y96137963D01*
X20209557Y96144481D01*
X20275740Y96151000D01*
X20364260Y96151000D01*
X20430442Y96144482D01*
X20430442Y96144482D01*
G37*
G36*
X26780442Y96144482D02*
G01*
X26846627Y96137963D01*
X27016466Y96086443D01*
X27172991Y96002778D01*
X27208729Y95973448D01*
X27310186Y95890186D01*
X27393448Y95788729D01*
X27422778Y95752991D01*
X27506443Y95596466D01*
X27557963Y95426627D01*
X27575359Y95250000D01*
X27557963Y95073373D01*
X27506443Y94903534D01*
X27422778Y94747009D01*
X27393448Y94711271D01*
X27310186Y94609814D01*
X27208729Y94526552D01*
X27172991Y94497222D01*
X27016466Y94413557D01*
X26846627Y94362037D01*
X26780442Y94355518D01*
X26714260Y94349000D01*
X26625740Y94349000D01*
X26559558Y94355518D01*
X26493373Y94362037D01*
X26323534Y94413557D01*
X26167009Y94497222D01*
X26131271Y94526552D01*
X26029814Y94609814D01*
X25946552Y94711271D01*
X25917222Y94747009D01*
X25833557Y94903534D01*
X25782037Y95073373D01*
X25764641Y95250000D01*
X25782037Y95426627D01*
X25833557Y95596466D01*
X25917222Y95752991D01*
X25946552Y95788729D01*
X26029814Y95890186D01*
X26131271Y95973448D01*
X26167009Y96002778D01*
X26323534Y96086443D01*
X26493373Y96137963D01*
X26559557Y96144481D01*
X26625740Y96151000D01*
X26714260Y96151000D01*
X26780442Y96144482D01*
X26780442Y96144482D01*
G37*
G36*
X59321000Y95619000D02*
G01*
X57519000Y95619000D01*
X57519000Y97421000D01*
X59321000Y97421000D01*
X59321000Y95619000D01*
X59321000Y95619000D01*
G37*
G36*
X26780443Y98684481D02*
G01*
X26846627Y98677963D01*
X27016466Y98626443D01*
X27172991Y98542778D01*
X27208729Y98513448D01*
X27310186Y98430186D01*
X27393448Y98328729D01*
X27422778Y98292991D01*
X27506443Y98136466D01*
X27557963Y97966627D01*
X27575359Y97790000D01*
X27557963Y97613373D01*
X27506443Y97443534D01*
X27422778Y97287009D01*
X27393448Y97251271D01*
X27310186Y97149814D01*
X27208729Y97066552D01*
X27172991Y97037222D01*
X27016466Y96953557D01*
X26846627Y96902037D01*
X26780443Y96895519D01*
X26714260Y96889000D01*
X26625740Y96889000D01*
X26559557Y96895519D01*
X26493373Y96902037D01*
X26323534Y96953557D01*
X26167009Y97037222D01*
X26131271Y97066552D01*
X26029814Y97149814D01*
X25946552Y97251271D01*
X25917222Y97287009D01*
X25833557Y97443534D01*
X25782037Y97613373D01*
X25764641Y97790000D01*
X25782037Y97966627D01*
X25833557Y98136466D01*
X25917222Y98292991D01*
X25946552Y98328729D01*
X26029814Y98430186D01*
X26131271Y98513448D01*
X26167009Y98542778D01*
X26323534Y98626443D01*
X26493373Y98677963D01*
X26559557Y98684481D01*
X26625740Y98691000D01*
X26714260Y98691000D01*
X26780443Y98684481D01*
X26780443Y98684481D01*
G37*
G36*
X20430443Y98684481D02*
G01*
X20496627Y98677963D01*
X20666466Y98626443D01*
X20822991Y98542778D01*
X20858729Y98513448D01*
X20960186Y98430186D01*
X21043448Y98328729D01*
X21072778Y98292991D01*
X21156443Y98136466D01*
X21207963Y97966627D01*
X21225359Y97790000D01*
X21207963Y97613373D01*
X21156443Y97443534D01*
X21072778Y97287009D01*
X21043448Y97251271D01*
X20960186Y97149814D01*
X20858729Y97066552D01*
X20822991Y97037222D01*
X20666466Y96953557D01*
X20496627Y96902037D01*
X20430443Y96895519D01*
X20364260Y96889000D01*
X20275740Y96889000D01*
X20209557Y96895519D01*
X20143373Y96902037D01*
X19973534Y96953557D01*
X19817009Y97037222D01*
X19781271Y97066552D01*
X19679814Y97149814D01*
X19596552Y97251271D01*
X19567222Y97287009D01*
X19483557Y97443534D01*
X19432037Y97613373D01*
X19414641Y97790000D01*
X19432037Y97966627D01*
X19483557Y98136466D01*
X19567222Y98292991D01*
X19596552Y98328729D01*
X19679814Y98430186D01*
X19781271Y98513448D01*
X19817009Y98542778D01*
X19973534Y98626443D01*
X20143373Y98677963D01*
X20209557Y98684481D01*
X20275740Y98691000D01*
X20364260Y98691000D01*
X20430443Y98684481D01*
X20430443Y98684481D01*
G37*
G36*
X49161000Y98159000D02*
G01*
X47359000Y98159000D01*
X47359000Y99961000D01*
X49161000Y99961000D01*
X49161000Y98159000D01*
X49161000Y98159000D01*
G37*
G36*
X39480442Y99954482D02*
G01*
X39546627Y99947963D01*
X39716466Y99896443D01*
X39872991Y99812778D01*
X39908729Y99783448D01*
X40010186Y99700186D01*
X40093448Y99598729D01*
X40122778Y99562991D01*
X40206443Y99406466D01*
X40257963Y99236627D01*
X40275359Y99060000D01*
X40257963Y98883373D01*
X40206443Y98713534D01*
X40122778Y98557009D01*
X40093448Y98521271D01*
X40010186Y98419814D01*
X39908729Y98336552D01*
X39872991Y98307222D01*
X39716466Y98223557D01*
X39546627Y98172037D01*
X39480443Y98165519D01*
X39414260Y98159000D01*
X39325740Y98159000D01*
X39259557Y98165519D01*
X39193373Y98172037D01*
X39023534Y98223557D01*
X38867009Y98307222D01*
X38831271Y98336552D01*
X38729814Y98419814D01*
X38646552Y98521271D01*
X38617222Y98557009D01*
X38533557Y98713534D01*
X38482037Y98883373D01*
X38464641Y99060000D01*
X38482037Y99236627D01*
X38533557Y99406466D01*
X38617222Y99562991D01*
X38646552Y99598729D01*
X38729814Y99700186D01*
X38831271Y99783448D01*
X38867009Y99812778D01*
X39023534Y99896443D01*
X39193373Y99947963D01*
X39259558Y99954482D01*
X39325740Y99961000D01*
X39414260Y99961000D01*
X39480442Y99954482D01*
X39480442Y99954482D01*
G37*
G36*
X48370443Y102494481D02*
G01*
X48436627Y102487963D01*
X48606466Y102436443D01*
X48762991Y102352778D01*
X48798729Y102323448D01*
X48900186Y102240186D01*
X48983448Y102138729D01*
X49012778Y102102991D01*
X49096443Y101946466D01*
X49147963Y101776627D01*
X49165359Y101600000D01*
X49147963Y101423373D01*
X49096443Y101253534D01*
X49012778Y101097009D01*
X48983448Y101061271D01*
X48900186Y100959814D01*
X48798729Y100876552D01*
X48762991Y100847222D01*
X48606466Y100763557D01*
X48436627Y100712037D01*
X48370442Y100705518D01*
X48304260Y100699000D01*
X48215740Y100699000D01*
X48149558Y100705518D01*
X48083373Y100712037D01*
X47913534Y100763557D01*
X47757009Y100847222D01*
X47721271Y100876552D01*
X47619814Y100959814D01*
X47536552Y101061271D01*
X47507222Y101097009D01*
X47423557Y101253534D01*
X47372037Y101423373D01*
X47354641Y101600000D01*
X47372037Y101776627D01*
X47423557Y101946466D01*
X47507222Y102102991D01*
X47536552Y102138729D01*
X47619814Y102240186D01*
X47721271Y102323448D01*
X47757009Y102352778D01*
X47913534Y102436443D01*
X48083373Y102487963D01*
X48149557Y102494481D01*
X48215740Y102501000D01*
X48304260Y102501000D01*
X48370443Y102494481D01*
X48370443Y102494481D01*
G37*
G36*
X40271000Y100699000D02*
G01*
X38469000Y100699000D01*
X38469000Y102501000D01*
X40271000Y102501000D01*
X40271000Y100699000D01*
X40271000Y100699000D01*
G37*
G36*
X48370442Y105034482D02*
G01*
X48436627Y105027963D01*
X48606466Y104976443D01*
X48762991Y104892778D01*
X48798729Y104863448D01*
X48900186Y104780186D01*
X48983448Y104678729D01*
X49012778Y104642991D01*
X49096443Y104486466D01*
X49147963Y104316627D01*
X49165359Y104140000D01*
X49147963Y103963373D01*
X49096443Y103793534D01*
X49012778Y103637009D01*
X48983448Y103601271D01*
X48900186Y103499814D01*
X48798729Y103416552D01*
X48762991Y103387222D01*
X48606466Y103303557D01*
X48436627Y103252037D01*
X48370443Y103245519D01*
X48304260Y103239000D01*
X48215740Y103239000D01*
X48149557Y103245519D01*
X48083373Y103252037D01*
X47913534Y103303557D01*
X47757009Y103387222D01*
X47721271Y103416552D01*
X47619814Y103499814D01*
X47536552Y103601271D01*
X47507222Y103637009D01*
X47423557Y103793534D01*
X47372037Y103963373D01*
X47354641Y104140000D01*
X47372037Y104316627D01*
X47423557Y104486466D01*
X47507222Y104642991D01*
X47536552Y104678729D01*
X47619814Y104780186D01*
X47721271Y104863448D01*
X47757009Y104892778D01*
X47913534Y104976443D01*
X48083373Y105027963D01*
X48149558Y105034482D01*
X48215740Y105041000D01*
X48304260Y105041000D01*
X48370442Y105034482D01*
X48370442Y105034482D01*
G37*
G36*
X25510442Y106304482D02*
G01*
X25576627Y106297963D01*
X25746466Y106246443D01*
X25902991Y106162778D01*
X25938729Y106133448D01*
X26040186Y106050186D01*
X26123448Y105948729D01*
X26152778Y105912991D01*
X26236443Y105756466D01*
X26287963Y105586627D01*
X26305359Y105410000D01*
X26287963Y105233373D01*
X26236443Y105063534D01*
X26152778Y104907009D01*
X26123448Y104871271D01*
X26040186Y104769814D01*
X25938729Y104686552D01*
X25902991Y104657222D01*
X25746466Y104573557D01*
X25576627Y104522037D01*
X25510442Y104515518D01*
X25444260Y104509000D01*
X25355740Y104509000D01*
X25289558Y104515518D01*
X25223373Y104522037D01*
X25053534Y104573557D01*
X24897009Y104657222D01*
X24861271Y104686552D01*
X24759814Y104769814D01*
X24676552Y104871271D01*
X24647222Y104907009D01*
X24563557Y105063534D01*
X24512037Y105233373D01*
X24494641Y105410000D01*
X24512037Y105586627D01*
X24563557Y105756466D01*
X24647222Y105912991D01*
X24676552Y105948729D01*
X24759814Y106050186D01*
X24861271Y106133448D01*
X24897009Y106162778D01*
X25053534Y106246443D01*
X25223373Y106297963D01*
X25289558Y106304482D01*
X25355740Y106311000D01*
X25444260Y106311000D01*
X25510442Y106304482D01*
X25510442Y106304482D01*
G37*
G36*
X22970442Y106304482D02*
G01*
X23036627Y106297963D01*
X23206466Y106246443D01*
X23362991Y106162778D01*
X23398729Y106133448D01*
X23500186Y106050186D01*
X23583448Y105948729D01*
X23612778Y105912991D01*
X23696443Y105756466D01*
X23747963Y105586627D01*
X23765359Y105410000D01*
X23747963Y105233373D01*
X23696443Y105063534D01*
X23612778Y104907009D01*
X23583448Y104871271D01*
X23500186Y104769814D01*
X23398729Y104686552D01*
X23362991Y104657222D01*
X23206466Y104573557D01*
X23036627Y104522037D01*
X22970442Y104515518D01*
X22904260Y104509000D01*
X22815740Y104509000D01*
X22749558Y104515518D01*
X22683373Y104522037D01*
X22513534Y104573557D01*
X22357009Y104657222D01*
X22321271Y104686552D01*
X22219814Y104769814D01*
X22136552Y104871271D01*
X22107222Y104907009D01*
X22023557Y105063534D01*
X21972037Y105233373D01*
X21954641Y105410000D01*
X21972037Y105586627D01*
X22023557Y105756466D01*
X22107222Y105912991D01*
X22136552Y105948729D01*
X22219814Y106050186D01*
X22321271Y106133448D01*
X22357009Y106162778D01*
X22513534Y106246443D01*
X22683373Y106297963D01*
X22749558Y106304482D01*
X22815740Y106311000D01*
X22904260Y106311000D01*
X22970442Y106304482D01*
X22970442Y106304482D01*
G37*
G36*
X28841000Y104509000D02*
G01*
X27039000Y104509000D01*
X27039000Y106311000D01*
X28841000Y106311000D01*
X28841000Y104509000D01*
X28841000Y104509000D01*
G37*
G36*
X20430442Y106304482D02*
G01*
X20496627Y106297963D01*
X20666466Y106246443D01*
X20822991Y106162778D01*
X20858729Y106133448D01*
X20960186Y106050186D01*
X21043448Y105948729D01*
X21072778Y105912991D01*
X21156443Y105756466D01*
X21207963Y105586627D01*
X21225359Y105410000D01*
X21207963Y105233373D01*
X21156443Y105063534D01*
X21072778Y104907009D01*
X21043448Y104871271D01*
X20960186Y104769814D01*
X20858729Y104686552D01*
X20822991Y104657222D01*
X20666466Y104573557D01*
X20496627Y104522037D01*
X20430442Y104515518D01*
X20364260Y104509000D01*
X20275740Y104509000D01*
X20209558Y104515518D01*
X20143373Y104522037D01*
X19973534Y104573557D01*
X19817009Y104657222D01*
X19781271Y104686552D01*
X19679814Y104769814D01*
X19596552Y104871271D01*
X19567222Y104907009D01*
X19483557Y105063534D01*
X19432037Y105233373D01*
X19414641Y105410000D01*
X19432037Y105586627D01*
X19483557Y105756466D01*
X19567222Y105912991D01*
X19596552Y105948729D01*
X19679814Y106050186D01*
X19781271Y106133448D01*
X19817009Y106162778D01*
X19973534Y106246443D01*
X20143373Y106297963D01*
X20209558Y106304482D01*
X20275740Y106311000D01*
X20364260Y106311000D01*
X20430442Y106304482D01*
X20430442Y106304482D01*
G37*
G36*
X6729487Y116821004D02*
G01*
X6966253Y116722932D01*
X6966255Y116722931D01*
X7179339Y116580553D01*
X7360553Y116399339D01*
X7502932Y116186253D01*
X7601004Y115949487D01*
X7651000Y115698139D01*
X7651000Y115441861D01*
X7601004Y115190513D01*
X7502932Y114953747D01*
X7502931Y114953745D01*
X7360553Y114740661D01*
X7179339Y114559447D01*
X6966255Y114417069D01*
X6966254Y114417068D01*
X6966253Y114417068D01*
X6729487Y114318996D01*
X6478139Y114269000D01*
X6221861Y114269000D01*
X5970513Y114318996D01*
X5733747Y114417068D01*
X5733746Y114417068D01*
X5733745Y114417069D01*
X5520661Y114559447D01*
X5339447Y114740661D01*
X5197069Y114953745D01*
X5197068Y114953747D01*
X5098996Y115190513D01*
X5049000Y115441861D01*
X5049000Y115698139D01*
X5098996Y115949487D01*
X5197068Y116186253D01*
X5339447Y116399339D01*
X5520661Y116580553D01*
X5733745Y116722931D01*
X5733747Y116722932D01*
X5970513Y116821004D01*
X6221861Y116871000D01*
X6478139Y116871000D01*
X6729487Y116821004D01*
X6729487Y116821004D01*
G37*
G36*
X86729487Y116821004D02*
G01*
X86966253Y116722932D01*
X86966255Y116722931D01*
X87179339Y116580553D01*
X87360553Y116399339D01*
X87502932Y116186253D01*
X87601004Y115949487D01*
X87651000Y115698139D01*
X87651000Y115441861D01*
X87601004Y115190513D01*
X87502932Y114953747D01*
X87502931Y114953745D01*
X87360553Y114740661D01*
X87179339Y114559447D01*
X86966255Y114417069D01*
X86966254Y114417068D01*
X86966253Y114417068D01*
X86729487Y114318996D01*
X86478139Y114269000D01*
X86221861Y114269000D01*
X85970513Y114318996D01*
X85733747Y114417068D01*
X85733746Y114417068D01*
X85733745Y114417069D01*
X85520661Y114559447D01*
X85339447Y114740661D01*
X85197069Y114953745D01*
X85197068Y114953747D01*
X85098996Y115190513D01*
X85049000Y115441861D01*
X85049000Y115698139D01*
X85098996Y115949487D01*
X85197068Y116186253D01*
X85339447Y116399339D01*
X85520661Y116580553D01*
X85733745Y116722931D01*
X85733747Y116722932D01*
X85970513Y116821004D01*
X86221861Y116871000D01*
X86478139Y116871000D01*
X86729487Y116821004D01*
X86729487Y116821004D01*
G37*
M02*
