G04 #@! TF.GenerationSoftware,KiCad,Pcbnew,5.1.2-f72e74a~84~ubuntu18.04.1*
G04 #@! TF.CreationDate,2019-12-29T11:51:02-05:00*
G04 #@! TF.ProjectId,knuth-gateway,6b6e7574-682d-4676-9174-657761792e6b,rev?*
G04 #@! TF.SameCoordinates,PX18392c0PY8b48bd0*
G04 #@! TF.FileFunction,Copper,L2,Bot*
G04 #@! TF.FilePolarity,Positive*
%FSLAX46Y46*%
G04 Gerber Fmt 4.6, Leading zero omitted, Abs format (unit mm)*
G04 Created by KiCad (PCBNEW 5.1.2-f72e74a~84~ubuntu18.04.1) date 2019-12-29 11:51:02*
%MOMM*%
%LPD*%
G04 APERTURE LIST*
%ADD10R,1.700000X1.700000*%
%ADD11O,1.700000X1.700000*%
%ADD12C,2.000000*%
%ADD13C,1.905000*%
G04 APERTURE END LIST*
D10*
X78740000Y86360000D03*
D11*
X78740000Y83820000D03*
X78740000Y81280000D03*
X78740000Y78740000D03*
X78740000Y76200000D03*
X78740000Y73660000D03*
X78740000Y71120000D03*
X78740000Y68580000D03*
X78740000Y66040000D03*
X78740000Y63500000D03*
X78740000Y60960000D03*
X78740000Y58420000D03*
D10*
X26670000Y19050000D03*
D11*
X26670000Y21590000D03*
X26670000Y24130000D03*
X26670000Y26670000D03*
X26670000Y29210000D03*
X26670000Y31750000D03*
X26670000Y34290000D03*
X26670000Y36830000D03*
X26670000Y39370000D03*
X26670000Y41910000D03*
X26670000Y44450000D03*
X26670000Y46990000D03*
X26670000Y49530000D03*
X26670000Y52070000D03*
X26670000Y54610000D03*
X26670000Y57150000D03*
X26670000Y59690000D03*
X26670000Y62230000D03*
X26670000Y64770000D03*
X26670000Y67310000D03*
X26670000Y69850000D03*
X26670000Y72390000D03*
X26670000Y74930000D03*
X26670000Y77470000D03*
X26670000Y80010000D03*
X26670000Y82550000D03*
X26670000Y85090000D03*
X26670000Y87630000D03*
X26670000Y90170000D03*
X26670000Y92710000D03*
X26670000Y95250000D03*
X26670000Y97790000D03*
X39370000Y99060000D03*
D10*
X39370000Y101600000D03*
D11*
X48260000Y104140000D03*
X48260000Y101600000D03*
D10*
X48260000Y99060000D03*
D11*
X20320000Y97790000D03*
X20320000Y95250000D03*
X20320000Y92710000D03*
X20320000Y90170000D03*
X20320000Y87630000D03*
X20320000Y85090000D03*
X20320000Y82550000D03*
X20320000Y80010000D03*
X20320000Y77470000D03*
X20320000Y74930000D03*
X20320000Y72390000D03*
X20320000Y69850000D03*
X20320000Y67310000D03*
X20320000Y64770000D03*
X20320000Y62230000D03*
X20320000Y59690000D03*
X20320000Y57150000D03*
X20320000Y54610000D03*
X20320000Y52070000D03*
X20320000Y49530000D03*
X20320000Y46990000D03*
X20320000Y44450000D03*
X20320000Y41910000D03*
X20320000Y39370000D03*
X20320000Y36830000D03*
X20320000Y34290000D03*
X20320000Y31750000D03*
X20320000Y29210000D03*
X20320000Y26670000D03*
X20320000Y24130000D03*
X20320000Y21590000D03*
D10*
X20320000Y19050000D03*
X58420000Y96520000D03*
D11*
X58420000Y93980000D03*
X58420000Y91440000D03*
X58420000Y88900000D03*
X58420000Y86360000D03*
X58420000Y83820000D03*
X58420000Y81280000D03*
X58420000Y78740000D03*
X58420000Y76200000D03*
X58420000Y73660000D03*
X58420000Y71120000D03*
X58420000Y68580000D03*
X58420000Y66040000D03*
X58420000Y63500000D03*
X58420000Y60960000D03*
X58420000Y58420000D03*
X20320000Y105410000D03*
X22860000Y105410000D03*
X25400000Y105410000D03*
D10*
X27940000Y105410000D03*
D12*
X68580000Y78740000D03*
X68580000Y69850000D03*
X13970000Y38100000D03*
X12700000Y48260000D03*
X16510000Y78740000D03*
X8890000Y77470000D03*
X15240000Y50800000D03*
X15240000Y58420000D03*
X30480000Y78740000D03*
X43180000Y96520000D03*
D13*
X26670000Y29210000D02*
X20320000Y29210000D01*
X78740000Y76200000D02*
X73660000Y76200000D01*
X73660000Y76200000D02*
X71120000Y76200000D01*
X71120000Y76200000D02*
X68580000Y78740000D01*
X26670000Y44450000D02*
X20320000Y44450000D01*
X10160000Y44450000D02*
X6350000Y40640000D01*
X68580000Y48260000D02*
X68580000Y69850000D01*
X20320000Y44450000D02*
X10160000Y44450000D01*
X11430000Y10160000D02*
X30480000Y10160000D01*
X6350000Y40640000D02*
X6350000Y15240000D01*
X6350000Y15240000D02*
X11430000Y10160000D01*
X30480000Y10160000D02*
X68580000Y48260000D01*
X26670000Y41910000D02*
X20320000Y41910000D01*
X10160000Y39370000D02*
X12700000Y41910000D01*
X19050000Y41910000D02*
X17780000Y41910000D01*
X12700000Y41910000D02*
X19050000Y41910000D01*
X10160000Y16510000D02*
X10160000Y39370000D01*
X29210000Y13970000D02*
X12700000Y13970000D01*
X20320000Y41910000D02*
X19050000Y41910000D01*
X78740000Y73660000D02*
X66040000Y73660000D01*
X12700000Y13970000D02*
X10160000Y16510000D01*
X66040000Y73660000D02*
X63500000Y71120000D01*
X63500000Y71120000D02*
X63500000Y48260000D01*
X63500000Y48260000D02*
X29210000Y13970000D01*
X82550000Y72390000D02*
X82550000Y91440000D01*
X78740000Y71120000D02*
X81280000Y71120000D01*
X81280000Y71120000D02*
X82550000Y72390000D01*
X69850000Y104140000D02*
X73025000Y100965000D01*
X48260000Y104140000D02*
X69850000Y104140000D01*
X82550000Y91440000D02*
X73025000Y100965000D01*
X73025000Y100965000D02*
X72390000Y101600000D01*
X26670000Y87630000D02*
X31750000Y87630000D01*
X58420000Y93980000D02*
X54610000Y93980000D01*
X54610000Y93980000D02*
X53340000Y92710000D01*
X36830000Y92710000D02*
X31750000Y87630000D01*
X53340000Y92710000D02*
X36830000Y92710000D01*
X26670000Y24130000D02*
X20320000Y24130000D01*
X20320000Y26670000D02*
X26670000Y26670000D01*
X26670000Y54610000D02*
X20320000Y54610000D01*
X26670000Y82550000D02*
X20320000Y82550000D01*
X26670000Y87630000D02*
X20320000Y87630000D01*
X20320000Y24130000D02*
X20320000Y26670000D01*
X20320000Y26670000D02*
X15240000Y26670000D01*
X15240000Y26670000D02*
X13970000Y27940000D01*
X13970000Y27940000D02*
X13970000Y38100000D01*
X20320000Y54610000D02*
X12700000Y54610000D01*
X12700000Y54610000D02*
X10160000Y57150000D01*
X10160000Y50800000D02*
X10160000Y57150000D01*
X10160000Y50800000D02*
X12700000Y48260000D01*
X20320000Y82550000D02*
X19050000Y82550000D01*
X19050000Y82550000D02*
X16510000Y80010000D01*
X16510000Y80010000D02*
X16510000Y78740000D01*
X8890000Y82550000D02*
X8890000Y77470000D01*
X20320000Y87630000D02*
X13970000Y87630000D01*
X13970000Y87630000D02*
X8890000Y82550000D01*
X8890000Y58420000D02*
X10160000Y57150000D01*
X8890000Y77470000D02*
X8890000Y58420000D01*
X34290000Y85090000D02*
X26670000Y85090000D01*
X58420000Y88900000D02*
X38100000Y88900000D01*
X38100000Y88900000D02*
X34290000Y85090000D01*
X26670000Y49530000D02*
X20320000Y49530000D01*
X26670000Y74930000D02*
X20320000Y74930000D01*
X26670000Y85090000D02*
X20320000Y85090000D01*
X20320000Y49530000D02*
X17780000Y49530000D01*
X17780000Y49530000D02*
X16510000Y49530000D01*
X16510000Y49530000D02*
X15240000Y50800000D01*
X15240000Y58420000D02*
X15240000Y72390000D01*
X17780000Y74930000D02*
X20320000Y74930000D01*
X15240000Y72390000D02*
X17780000Y74930000D01*
X13970000Y73660000D02*
X15240000Y72390000D01*
X12700000Y74930000D02*
X13970000Y73660000D01*
X12700000Y80010000D02*
X12700000Y74930000D01*
X20320000Y85090000D02*
X17780000Y85090000D01*
X17780000Y85090000D02*
X12700000Y80010000D01*
X29210000Y39370000D02*
X26670000Y39370000D01*
X58420000Y86360000D02*
X40640000Y86360000D01*
X40640000Y86360000D02*
X34290000Y80010000D01*
X26670000Y39370000D02*
X20320000Y39370000D01*
X34290000Y80010000D02*
X34290000Y44450000D01*
X34290000Y44450000D02*
X29210000Y39370000D01*
X30480000Y36830000D02*
X26670000Y36830000D01*
X58420000Y83820000D02*
X44450000Y83820000D01*
X38100000Y44450000D02*
X30480000Y36830000D01*
X38100000Y77470000D02*
X38100000Y44450000D01*
X44450000Y83820000D02*
X38100000Y77470000D01*
X26670000Y36830000D02*
X20320000Y36830000D01*
X46990000Y81280000D02*
X58420000Y81280000D01*
X41910000Y76200000D02*
X46990000Y81280000D01*
X41910000Y44450000D02*
X41910000Y76200000D01*
X26670000Y34290000D02*
X31750000Y34290000D01*
X31750000Y34290000D02*
X41910000Y44450000D01*
X26670000Y34290000D02*
X20320000Y34290000D01*
X45720000Y44450000D02*
X33020000Y31750000D01*
X33020000Y31750000D02*
X26670000Y31750000D01*
X45720000Y74930000D02*
X45720000Y44450000D01*
X58420000Y78740000D02*
X49530000Y78740000D01*
X49530000Y78740000D02*
X45720000Y74930000D01*
X26670000Y31750000D02*
X20320000Y31750000D01*
X27940000Y21590000D02*
X26670000Y21590000D01*
X49530000Y43180000D02*
X27940000Y21590000D01*
X49530000Y72390000D02*
X49530000Y43180000D01*
X58420000Y76200000D02*
X53340000Y76200000D01*
X53340000Y76200000D02*
X49530000Y72390000D01*
X20320000Y21590000D02*
X26670000Y21590000D01*
X29425000Y19050000D02*
X26670000Y19050000D01*
X53340000Y42965000D02*
X29425000Y19050000D01*
X53340000Y71120000D02*
X53340000Y42965000D01*
X58420000Y73660000D02*
X55880000Y73660000D01*
X55880000Y73660000D02*
X53340000Y71120000D01*
X26670000Y19050000D02*
X20320000Y19050000D01*
X26670000Y46990000D02*
X20320000Y46990000D01*
X30480000Y78740000D02*
X30480000Y53340000D01*
X29210000Y52070000D02*
X26670000Y52070000D01*
X30480000Y53340000D02*
X29210000Y52070000D01*
X48260000Y99060000D02*
X48260000Y97790000D01*
X48260000Y97790000D02*
X46990000Y96520000D01*
X46990000Y96520000D02*
X43180000Y96520000D01*
X26670000Y52070000D02*
X20320000Y52070000D01*
X26670000Y57150000D02*
X20320000Y57150000D01*
X26670000Y59690000D02*
X20320000Y59690000D01*
X26670000Y62230000D02*
X20320000Y62230000D01*
X26670000Y64770000D02*
X20320000Y64770000D01*
X26670000Y67310000D02*
X20320000Y67310000D01*
X26670000Y69850000D02*
X20320000Y69850000D01*
X26670000Y72390000D02*
X20320000Y72390000D01*
X26670000Y77470000D02*
X20320000Y77470000D01*
X26670000Y80010000D02*
X20320000Y80010000D01*
X34290000Y95250000D02*
X29210000Y90170000D01*
X29210000Y90170000D02*
X26670000Y90170000D01*
X30695000Y105410000D02*
X34290000Y101815000D01*
X27940000Y105410000D02*
X30695000Y105410000D01*
X35560000Y99060000D02*
X34290000Y97790000D01*
X39370000Y99060000D02*
X35560000Y99060000D01*
X34290000Y101815000D02*
X34290000Y97790000D01*
X34290000Y97790000D02*
X34290000Y95250000D01*
X26670000Y90170000D02*
X20320000Y90170000D01*
X25400000Y102870000D02*
X25400000Y105410000D01*
X27940000Y92710000D02*
X30480000Y95250000D01*
X26670000Y92710000D02*
X27940000Y92710000D01*
X30480000Y100330000D02*
X29210000Y101600000D01*
X30480000Y95250000D02*
X30480000Y100330000D01*
X29210000Y101600000D02*
X26670000Y101600000D01*
X26670000Y101600000D02*
X25400000Y102870000D01*
X26670000Y92710000D02*
X20320000Y92710000D01*
X17780000Y95250000D02*
X20320000Y95250000D01*
X22860000Y105410000D02*
X22860000Y107950000D01*
X15240000Y97790000D02*
X17780000Y95250000D01*
X21590000Y109220000D02*
X17780000Y109220000D01*
X22860000Y107950000D02*
X21590000Y109220000D01*
X17780000Y109220000D02*
X15240000Y106680000D01*
X15240000Y106680000D02*
X15240000Y97790000D01*
X26670000Y95250000D02*
X20320000Y95250000D01*
X20320000Y105410000D02*
X20320000Y97790000D01*
X26670000Y97790000D02*
X20320000Y97790000D01*
X48260000Y101600000D02*
X39370000Y101600000D01*
M02*
