M48
; DRILL file {KiCad 5.1.2-f72e74a~84~ubuntu18.04.1} date Sun 29 Dec 2019 11:51:15 AM EST
; FORMAT={-:-/ absolute / metric / decimal}
; #@! TF.CreationDate,2019-12-29T11:51:15-05:00
; #@! TF.GenerationSoftware,Kicad,Pcbnew,5.1.2-f72e74a~84~ubuntu18.04.1
; #@! TF.FileFunction,Plated,1,2,PTH
FMAT,2
METRIC
T1C1.000
%
G90
G05
T1
X8.89Y77.47
X12.7Y48.26
X13.97Y38.1
X15.24Y58.42
X15.24Y50.8
X16.51Y78.74
X30.48Y78.74
X43.18Y96.52
X68.58Y78.74
X68.58Y69.85
X78.74Y86.36
X78.74Y83.82
X78.74Y81.28
X78.74Y78.74
X78.74Y76.2
X78.74Y73.66
X78.74Y71.12
X78.74Y68.58
X78.74Y66.04
X78.74Y63.5
X78.74Y60.96
X78.74Y58.42
X48.26Y104.14
X48.26Y101.6
X48.26Y99.06
X26.67Y97.79
X26.67Y95.25
X26.67Y92.71
X26.67Y90.17
X26.67Y87.63
X26.67Y85.09
X26.67Y82.55
X26.67Y80.01
X26.67Y77.47
X26.67Y74.93
X26.67Y72.39
X26.67Y69.85
X26.67Y67.31
X26.67Y64.77
X26.67Y62.23
X26.67Y59.69
X26.67Y57.15
X26.67Y54.61
X26.67Y52.07
X26.67Y49.53
X26.67Y46.99
X26.67Y44.45
X26.67Y41.91
X26.67Y39.37
X26.67Y36.83
X26.67Y34.29
X26.67Y31.75
X26.67Y29.21
X26.67Y26.67
X26.67Y24.13
X26.67Y21.59
X26.67Y19.05
X39.37Y101.6
X39.37Y99.06
X58.42Y96.52
X58.42Y93.98
X58.42Y91.44
X58.42Y88.9
X58.42Y86.36
X58.42Y83.82
X58.42Y81.28
X58.42Y78.74
X58.42Y76.2
X58.42Y73.66
X58.42Y71.12
X58.42Y68.58
X58.42Y66.04
X58.42Y63.5
X58.42Y60.96
X58.42Y58.42
X20.32Y105.41
X22.86Y105.41
X25.4Y105.41
X27.94Y105.41
X20.32Y97.79
X20.32Y95.25
X20.32Y92.71
X20.32Y90.17
X20.32Y87.63
X20.32Y85.09
X20.32Y82.55
X20.32Y80.01
X20.32Y77.47
X20.32Y74.93
X20.32Y72.39
X20.32Y69.85
X20.32Y67.31
X20.32Y64.77
X20.32Y62.23
X20.32Y59.69
X20.32Y57.15
X20.32Y54.61
X20.32Y52.07
X20.32Y49.53
X20.32Y46.99
X20.32Y44.45
X20.32Y41.91
X20.32Y39.37
X20.32Y36.83
X20.32Y34.29
X20.32Y31.75
X20.32Y29.21
X20.32Y26.67
X20.32Y24.13
X20.32Y21.59
X20.32Y19.05
T0
M30
